<svg xmlns="http://www.w3.org/2000/svg" viewBox="0 0 1000 564.55" width="100%"
fill="currentColor" id="drip"><g id="Layer_2" data-name="Layer 2"><g id="Layer_1-2" data-name="Layer 1"><path class="cls-1" d="M369.59.19V0H0V237.67c0,.83.06,1.66.06,2.5V335.8A23.13,23.13,0,0,0,23.2,358.93h0A23.13,23.13,0,0,0,46.33,335.8v-.23a38.56,38.56,0,1,1,77.11,0v7.94a61.69,61.69,0,0,0,61.69,61.69h0a61.68,61.68,0,0,0,61.68-60.79,23.13,23.13,0,0,1,45.67,3.6v88.35a39.2,39.2,0,0,0,39.11,38.74h0a38.56,38.56,0,0,0,38.56-38.56V348.2a23.13,23.13,0,0,1,45.66-3.6,61.69,61.69,0,0,0,123.37-.9v-7.95a38.56,38.56,0,0,1,77.12,0V336a23.13,23.13,0,1,0,46.26,0V240.36a61.7,61.7,0,0,1,123.39,0V445.18a38.56,38.56,0,1,0,77.11,0V430.36a23.13,23.13,0,0,1,45.65-2v74.48a61.69,61.69,0,0,0,61.69,61.69h0A61.36,61.36,0,0,0,1000,557V.19Z"/></g></g></svg>