<svg xmlns="http://www.w3.org/2000/svg" viewBox="0 0 423.2 981.44" id="headshot-border"><defs><style>.cls-1,.cls-2,.cls-3{fill:none;stroke:#00e9f9;stroke-miterlimit:10;stroke-width:7.65px;}.cls-2{stroke-dasharray:30.38 30.38;}.cls-3{stroke-dasharray:30.38 30.38;}</style></defs><g id="Layer_2" data-name="Layer 2"><g id="Layer_1-2" data-name="Layer 1"><polyline class="cls-1" points="302.31 56.88 211.45 4.42 120.59 56.88"/><line class="cls-1" x1="302.31" y1="56.88" x2="322.2" y2="68.35"/><line class="cls-2" x1="348.5" y1="83.54" x2="387.96" y2="106.32"/><line class="cls-1" x1="401.11" y1="113.92" x2="421" y2="125.4"/><line class="cls-1" x1="120.59" y1="56.88" x2="100.71" y2="68.35"/><line class="cls-3" x1="74.41" y1="83.54" x2="34.95" y2="106.32"/><line class="cls-1" x1="21.8" y1="113.92" x2="1.91" y2="125.4"/><polyline class="cls-1" points="120.88 924.56 211.74 977.02 302.6 924.56"/><line class="cls-1" x1="120.88" y1="924.56" x2="101" y2="913.08"/><line class="cls-2" x1="74.69" y1="897.89" x2="35.23" y2="875.11"/><line class="cls-1" x1="22.08" y1="867.52" x2="2.2" y2="856.04"/><line class="cls-1" x1="302.6" y1="924.56" x2="322.48" y2="913.08"/><line class="cls-3" x1="348.79" y1="897.89" x2="388.25" y2="875.11"/><line class="cls-1" x1="401.4" y1="867.52" x2="421.28" y2="856.04"/></g></g></svg>