<svg xmlns="http://www.w3.org/2000/svg" viewBox="0 0 345 364" id="c">
<path fill="#243b97" d="M229.85,215.05c.89-.41,1.56.17,2.26.55l28.94,16c.78,1.19-.08,1.94-.77,2.69-1.7,1.85-4,2.83-6.12,4-17.76,9.87-35.42,19.91-53.17,29.81-6.67,3.73-13.38,7.37-19.94,11.28a20,20,0,0,1-7.13,2.19h-4c-5.46-.6-9.65-4-14.22-6.53-9.37-5.15-18.68-10.4-28-15.67-10.09-5.71-20.21-11.34-30.3-17-3.24-1.82-6.44-3.7-9.72-5.45A13.13,13.13,0,0,1,83.76,234c-.6-.68-1.17-1.39-.54-2.37.62-1.58,2.26-1.86,3.49-2.57,8.94-5.17,17.93-10.25,26.91-15.35,1.28-.07,1.77.87,2.32,1.77a62.69,62.69,0,0,0,9.69,12.45A67.48,67.48,0,0,0,148,242.62a65.5,65.5,0,0,0,67.85-12.14A68.29,68.29,0,0,0,227.36,217C228,216.09,228.48,215,229.85,215.05Z"/>
<path fill="#5870c4" d="M257.37,126.43c-14-7.92-28.1-15.71-42.15-23.58q-14.55-8.16-29.14-16.29c-3.71-2.08-7.23-4.69-11.71-5h-4.91c-3.8.41-7,2.42-10.15,4.24-12.77,7.27-25.64,14.35-38.44,21.57q-16.19,9.13-32.45,18.14c-3.66,2-6.57,4.25-6.9,8.73v94.19c.65,1.11-.11,2.94,1.75,3.42a2.08,2.08,0,0,0,1-.32c9.32-5.25,18.58-10.61,27.91-15.84a3.51,3.51,0,0,0,1.87-2.12c.21-1.28-.53-2.29-1-3.35a64.85,64.85,0,0,1-5.3-41.27,65.83,65.83,0,0,1,58.9-52.81,63.52,63.52,0,0,1,39.1,9.09,68,68,0,0,1,14.8,12c3.14,3.42,5.44,7.43,8.47,10.89,1,.48,1.74-.13,2.49-.56,8.91-5.21,17.95-10.22,26.87-15.42.84-.49,1.72-.92,2-2C260.37,128.18,258.85,127.27,257.37,126.43Z"/>
<path fill="#3550af" d="M262.2,131.93c-.31-1-.65-2-2.06-1.74-3.81,2.13-7.66,4.2-11.43,6.41-6.51,3.81-13.23,7.27-19.57,11.39-1.09-.79-2-.07-2.86.43-8.81,4.93-17.56,10-26.32,15a5.73,5.73,0,0,0-.62.25c-9.41,5.07-18.56,10.62-27.91,15.81a2.27,2.27,0,0,0-1.39,2.11c.31,1.33,1.44,1.8,2.47,2.38q5.6,3.18,11.28,6.21c5.54,3,10.91,6.26,16.61,9,4,2.57,8.27,4.62,12.38,7,5.52,3.17,11.28,5.93,16.65,9.39,8.66,4.33,17,9.29,25.54,13.81,2,1,3.72,2.73,6.19,2.66,1.59-.71,1-2.4,1.6-3.56v-93.3C262.36,134.1,262.52,133,262.2,131.93Z"/>
<path fill="#fff" d="M229.85,215.05c-7.95,13.15-18.9,22.85-33.23,28.52a66.64,66.64,0,0,1-81.68-27.79c-.42-.7-.88-1.38-1.32-2.06a72.78,72.78,0,0,1-7.68-24.3A66.65,66.65,0,0,1,228.25,145.6c.45.71,1.27,1.34.89,2.39l-26.39,15a6.23,6.23,0,0,1-2.38,1.13c-1.57-.31-2.21-1.68-3.07-2.75a31.09,31.09,0,0,0-25.24-12.11c-10.84.07-19.78,4.71-26.26,13.66a31.5,31.5,0,0,0-6,18.35,30.28,30.28,0,0,0,4.1,16c5.66,9.68,14,15.38,25.19,16.43,12.21,1.14,21.93-3.58,29.32-13.25.64-.82,1.12-1.78,2.35-1.82a42.48,42.48,0,0,1,6.28,3.26q10.63,5.77,21.2,11.68C228.86,213.86,229.88,213.93,229.85,215.05Z"/>
<path fill="#5870c4" d="M143.06,197.69c-11.13-18.84.35-44.21,22-48.71,14-2.91,29,3.49,35.29,15.1L172.52,180a6.12,6.12,0,0,0-2.21,1.47,2.21,2.21,0,0,1-1.23,1.76c-8.39,4.73-16.74,9.54-25.16,14.24A2.08,2.08,0,0,1,143.06,197.69Z"/>
<path fill="#243b97" d="M143.06,197.69a1.82,1.82,0,0,1,1-1.38l26.25-14.8c5.37,3,10.76,6,16.11,9,4.77,2.69,9.71,5.07,14.31,8.06C194,209.37,184.25,215,171.64,214.81S149.4,208.72,143.06,197.69Z"/>
</svg>