<svg xmlns="http://www.w3.org/2000/svg" xmlns:xlink="http://www.w3.org/1999/xlink" viewBox="0 0 248 306" id="css">
<path fill="#1259eb" d="M53.36,92.68v-.59l.82,0h140a2.8,2.8,0,0,0,.41,0c.34,0,.44.09.41.43-.26,2.74-.5,5.49-.75,8.23-.37,4.2-.76,8.39-1.13,12.59-.33,3.72-.65,7.45-1,11.18-.37,4.19-.76,8.39-1.13,12.58-.34,3.75-.66,7.49-1,11.24-.41,4.63-.84,9.25-1.25,13.88-.38,4.19-.74,8.39-1.11,12.59l-1.26,13.88q-.61,6.93-1.22,13.88-.8,8.91-1.61,17.82c-.47,5.31-.95,10.63-1.41,15.94a.52.52,0,0,1-.45.56c-.82.2-1.63.44-2.45.66l-54.4,15.1a2.66,2.66,0,0,1-1.48,0Q95,244.74,66.7,236.89a.56.56,0,0,1-.49-.58c-.23-2.75-.48-5.5-.73-8.24l-1-11.47-.87-9.76-1-11.36-.87-9.88-1-11.29q-.49-5.59-1-11.18l-1.14-12.59c-.37-4.19-.73-8.39-1.11-12.58q-.62-6.94-1.25-13.88-.56-6.3-1.1-12.59c-.47-5.24-.93-10.48-1.41-15.71A26.93,26.93,0,0,0,53.36,92.68Zm70.81,29H80.51a2.84,2.84,0,0,1-.41,0c-.34,0-.37.12-.34.42q.75,8.28,1.5,16.58c0,.52.15.75.78.75q33.08,0,66.15,0h.48c.33,0,.45.08.41.43-.1.9-.17,1.8-.25,2.7-.42,4.81-.86,9.61-1.26,14.42,0,.56-.25.64-.74.64H83.21c-.24,0-.29.08-.27.31.16,1.75.31,3.49.47,5.24.34,3.8.7,7.6,1,11.41,0,.57.17.78.81.78q29.94,0,59.9,0h.47c.27,0,.38,0,.35.36-.21,2.18-.39,4.35-.59,6.53-.46,5.18-.93,10.35-1.38,15.53,0,.44-.16.64-.61.76q-9.48,2.53-19,5.11a1.25,1.25,0,0,1-.69,0q-9.43-2.56-18.89-5.1a.6.6,0,0,1-.53-.63c-.12-1.5-.25-3-.39-4.48-.26-2.9-.53-5.8-.77-8.7,0-.43-.2-.49-.58-.49h-11c-1.89,0-3.78,0-5.67,0-.41,0-.63,0-.55.56.14,1,.18,1.92.26,2.88l1,11.23c.38,4.22.77,8.43,1.13,12.65a.66.66,0,0,0,.59.7q17,4.71,34,9.46a6.42,6.42,0,0,0,3.66,0q17-4.77,34-9.44c.41-.11.57-.25.6-.69.08-1.37.23-2.75.35-4.12q.75-8.26,1.49-16.53t1.46-16.53c.49-5.49,1-11,1.49-16.47s1-11.06,1.47-16.58q.84-9.57,1.72-19.12c0-.41,0-.53-.47-.53Z"/>
<path fill="#fff" d="M133.93,52.73c0,2.47,0,4.93,0,7.39,0,.49-.24.43-.54.43H122.08c-.2,0-.56-.16-.6.16a2.6,2.6,0,0,0,0,1.33c0,.14.33.06.5.06q5.67,0,11.34,0c.46,0,.59.1.59.58q0,8.44,0,16.9c0,.4-.09.53-.51.53q-10.23,0-20.44,0c-.45,0-.56-.12-.55-.56,0-2.38,0-4.77,0-7.15,0-.42.12-.52.52-.52,3.8,0,7.6,0,11.4,0,.51,0,.62-.14.6-.62,0-1,0-1-1-1-3.66,0-7.32,0-11,0-.48,0-.57-.14-.57-.59q0-8.19,0-16.37c0-.22,0-.43,0-.65Z"/>
<path fill="#fff" d="M159.69,52.73q0,3.75,0,7.5c0,.47-.31.31-.52.31H148.05c-.26,0-.68-.16-.75.11a3.35,3.35,0,0,0,0,1.34c0,.19.3.1.47.1h11.51c.35,0,.48.08.47.45q0,8.57,0,17.13c0,.36-.13.41-.44.41-6.85,0-13.7,0-20.55,0-.4,0-.49-.12-.49-.5,0-2.38,0-4.77,0-7.15,0-.45.1-.58.57-.58,3.78,0,7.56,0,11.34,0,.5,0,.62-.14.59-.62,0-1,0-1-.95-1h-11c-.35,0-.56,0-.56-.48,0-5.61,0-11.23,0-16.84,0-.09,0-.19,0-.29Z"/>
<path fill="#fff" d="M108.18,52.73c0,2.82,0,5.64,0,8.45,0,.44-.09.55-.54.55-3.8,0-7.6,0-11.4,0-.44,0-.6.08-.59.57,0,2.64,0,5.28,0,7.92,0,.41.1.52.52.52,3.82,0,7.64,0,11.46,0,.43,0,.55.08.55.54q0,3.95,0,7.91c0,.43-.08.56-.54.56q-10.22,0-20.43,0c-.46,0-.54-.13-.54-.56q0-12.87,0-25.76c0-.21,0-.43,0-.65Z"/>
<path fill="#fff" d="M124.17,121.64h43.89c.43,0,.51.12.47.53q-.87,9.56-1.72,19.12c-.5,5.52-1,11.06-1.47,16.58s-1,11-1.49,16.47-1,11-1.46,16.53-1,11-1.49,16.53c-.12,1.37-.27,2.75-.35,4.12,0,.44-.19.58-.6.69q-17,4.7-34,9.44a6.42,6.42,0,0,1-3.66,0q-17-4.78-34-9.46a.66.66,0,0,1-.59-.7c-.36-4.22-.75-8.43-1.13-12.65l-1-11.23c-.08-1-.12-1.93-.26-2.88-.08-.54.14-.56.55-.56,1.89,0,3.78,0,5.67,0h11c.38,0,.54.06.58.49.24,2.9.51,5.8.77,8.7.14,1.49.27,3,.39,4.48a.6.6,0,0,0,.53.63q9.45,2.53,18.89,5.1a1.25,1.25,0,0,0,.69,0q9.48-2.57,19-5.11c.45-.12.57-.32.61-.76.45-5.18.92-10.35,1.38-15.53.2-2.18.38-4.35.59-6.53,0-.31-.08-.38-.35-.36h-.47q-30,0-59.9,0c-.64,0-.76-.21-.81-.78-.31-3.81-.67-7.61-1-11.41-.16-1.75-.31-3.49-.47-5.24,0-.23,0-.33.27-.31h63.62c.49,0,.69-.08.74-.64.4-4.81.84-9.61,1.26-14.42.08-.9.15-1.8.25-2.7,0-.35-.08-.47-.41-.43h-.48q-33.07,0-66.15,0c-.63,0-.74-.23-.78-.75q-.74-8.29-1.5-16.58c0-.3,0-.46.34-.42a2.84,2.84,0,0,0,.41,0h43.66Z"/>
</svg>