<svg xmlns="http://www.w3.org/2000/svg" xmlns:xlink="http://www.w3.org/1999/xlink" viewBox="0 0 240 284" id="flask">
<path fill="#fff" d="M187.76,241.57c-4.1-3.48-7-7.9-10-12.31-.48-.71-.63-2.14-1.88-1.71s-2.88,1-3.23,2.6a14.37,14.37,0,0,0,.17,6.29,2.12,2.12,0,0,0,2,1.54c1,.16,2,.3,3,.52a1.18,1.18,0,0,1,1,1.51c-.14.78-.78.68-1.32.64a102.23,102.23,0,0,0-12.5.35c-.77,0-1.83.38-2.1-.76s.61-1.76,1.58-2c1.7-.37,2.18-1.63,2.33-3.07a38,38,0,0,0,.1-4c0-9.58,0-19.15,0-28.73,0-3.1-.69-5.49-4-6.4-.48-.13-1-.41-1-1a1.3,1.3,0,0,1,.94-1.26,44.39,44.39,0,0,0,7.58-3.8c1.1-.62,1.81,0,2,1.1a8.34,8.34,0,0,1,0,1.5q0,15.38,0,30.74c0,.58-.28,1.36.31,1.71s1.23-.31,1.72-.7c2.33-1.89,4.63-3.82,6.94-5.74.6-.5,1.29-1.08,1.08-1.92s-1.09-.84-1.78-1c-.48-.14-1-.18-1.45-.36s-.69-.82-.6-1.41a.89.89,0,0,1,1.05-.84c4.71.51,9.44.39,14.17.43a1.1,1.1,0,0,1,1.25,1.06,1.18,1.18,0,0,1-.91,1.39,5,5,0,0,1-1.14.2c-5,.31-8.52,3.2-11.89,6.45-.52.5-.39,1-.08,1.49,2.77,4.59,5.86,8.92,10.07,12.34a6.1,6.1,0,0,0,4.45,1.56,2.61,2.61,0,0,1,2.15.9v1c-.63,1.26-1.82,1.28-3,1.32-2.24.08-4.49-.17-6.71.35Z"/>
<path fill="#fff" d="M141,241.57c-1.09-1-2.56-.74-3.84-1.1-2.37-.66-2.44-.66-2.5-3.14,0-.94,0-1.89,0-2.83,0-.66,0-1.43.77-1.67s1.23.34,1.59.94c2.27,3.76,5.75,4.81,9.87,4.43,1.63-.15,3.07-.65,3.56-2.48s-.34-3-1.71-4a37.63,37.63,0,0,0-5.93-3,26.28,26.28,0,0,1-3.89-2.23,7.33,7.33,0,0,1,.26-12.22c2.93-1.9,6.2-1.94,9.5-1.68,5,.39,6.38,1.91,6.4,7a.84.84,0,0,1-.7,1,1.57,1.57,0,0,1-1.93-.5,10.52,10.52,0,0,0-3.21-3.33,8,8,0,0,0-6.28-.75,2.7,2.7,0,0,0-2.28,2.35,3.25,3.25,0,0,0,1.42,3.33,33.87,33.87,0,0,0,4.44,2.29c1.77.8,3.53,1.62,5.23,2.56a7.28,7.28,0,0,1,3.94,7.65c-.32,3.15-2.21,5.09-5,6.33-1.09.49-2.35.44-3.36,1.14H145.7a3.34,3.34,0,0,0-2.33,0Z"/>
<path fill="#fff" d="M143.37,241.57a1.88,1.88,0,0,1,2.33,0Z"/>
<path fill="#fff" d="M47,217.3c0-5.06-.05-10.13,0-15.19.05-2.75-1-4.72-3.53-5.86-.3-.13-.58-.32-.87-.48a1.17,1.17,0,0,1-.59-1.56c.23-.64.75-.74,1.35-.67,8.6,1,17.22.46,25.83.24,1.34,0,2.67-.14,4-.17.79,0,1.24.26,1,1.22a33.91,33.91,0,0,0-.65,7c0,.69,0,1.42-.87,1.58a1.33,1.33,0,0,1-1.56-1c-1.34-4.51-4.74-5.41-8.86-5.26-2.33.09-4.67,0-7,0-1.43,0-2.09.5-2.06,2.08.08,4.84.07,9.68,0,14.52,0,1.34.43,1.79,1.73,1.69,2.67-.19,5.33-.35,8-.42a2.34,2.34,0,0,0,2.56-2.26,14.77,14.77,0,0,1,.45-2.12c.26-.82.93-.88,1.64-.7a1,1,0,0,1,.89,1.34A48.18,48.18,0,0,0,67.83,223c0,.75-.13,1.33-1,1.47a1.18,1.18,0,0,1-1.44-1.06c-1.1-5-2.73-4.76-6.87-4.92-1.39-.06-2.79,0-4.17-.07-.85,0-1.18.24-1.18,1.13,0,5.12,0,10.24,0,15.36a2.55,2.55,0,0,0,1.93,2.6,22,22,0,0,0,3.94.69c.79.12,1.44.46,1.39,1.35s-.77,1.06-1.46,1.06c-1.77,0-3.55-.09-5.33-.2a56.5,56.5,0,0,0-9.82.25c-.83.1-1.67.17-1.88-.84s.66-1.21,1.45-1.4c2.35-.56,3.4-2,3.47-5,.09-4.56,0-9.13.05-13.69C47,219,47,218.14,47,217.3Z"/>
<path fill="#fff" d="M91,213q0,10.28,0,20.54c0,3,.93,4,3.93,4.55.17,0,.33.07.5.09.88.14,1.94.22,1.83,1.45s-1.24,1-2.1,1a80.56,80.56,0,0,0-11.83.22c-.65.06-1.52.4-1.81-.64s.37-1.62,1.23-1.83c2-.5,2.55-1.95,2.55-3.77v-32.4c0-2.79-.83-5-3.74-6-.52-.17-1.1-.44-1.1-1.1a1.43,1.43,0,0,1,1.06-1.37c2.64-.79,4.88-2.37,7.31-3.58,1.41-.7,2.21-.16,2.2,1.51,0,2.9-.14,5.79-.16,8.68,0,4.23,0,8.46,0,12.69Z"/>
<path fill="#fff" d="M129.24,236.56c-.47-1.06-1.4-.59-2.19-.46-2.8.45-3.43-.07-3.42-2.87,0-4.84.12-9.68.08-14.51,0-3.28-1.57-5.38-4.54-5.93-5.72-1-10.57,1-14.9,4.6a2.21,2.21,0,0,0-.47,2.76,2.09,2.09,0,0,0,2.2,1.18c2.21,0,3.53-1.29,4.48-3.18.74-1.47,1.66-2.79,3.68-2.5,2.29.33,3.63,1.41,4.08,3.54a16.91,16.91,0,0,1,.06,4.66c-.06.88-.76,1.33-1.52,1.59a16,16,0,0,1-1.94.45c-3.66.75-7.25,1.69-10.34,3.92A5.75,5.75,0,0,0,102,235.9a6.21,6.21,0,0,0,4.19,5c.42.15,1.08-.05,1.14.7h.34c.74-.44,1.6.05,2.35-.3a19.17,19.17,0,0,0,6.89-2.35c1.18-.65,2-.59,2.81.6,1,1.54,2.45,1.78,4.1,1.29a14.6,14.6,0,0,0,4.3-2.16C128.82,238.14,129.75,237.68,129.24,236.56Zm-10.88-4.17c-.18,1.44.64,3.24-1.26,4.11-2.32,1.06-4.75,1.72-7.2.53s-2.56-4.44-.59-6.21c2.22-2,5-2.45,7.82-2.92.78-.13,1.25.32,1.26,1.16v3h0A1.93,1.93,0,0,1,118.36,232.39Z"/>
<path fill="#fff" d="M95,84.89c-.3,0-.36.35-.35.64h0c.5.36,0,1,.29,1.35h0c.11-.47.25-.94.32-1.42C95.27,85.24,95.42,84.84,95,84.89Z"/>
<path fill="#fff" d="M100.91,126.8a3.37,3.37,0,0,0-.2-3c-.13-.3-.28-.67-.69-.56s-.37.52-.28.84A6.67,6.67,0,0,0,100.91,126.8Z"/>
<path fill="#fff" d="M108.05,138.92c.22.09.52,0,.48-.25a2.22,2.22,0,0,0-1.73-1.84C107.26,137.76,107.24,138.55,108.05,138.92Z"/>
<path fill="#fff" d="M103,132.71c.25-.51.36-.9-.18-1.38C102.55,131.9,102.35,132.34,103,132.71Z"/>
<path fill="#fff" d="M114.16,147.54c-.21-2.06-1.36-3.53-3.22-5.15A7.07,7.07,0,0,0,114.16,147.54Z"/>
<path fill="#fff" d="M80.61,106.51a3.52,3.52,0,0,0-1.88-1.27c.31,1.72,1.48,3,1.53,5a39,39,0,0,1-2.69-4.93c0-.36,0-.71-.52-.69a1.29,1.29,0,0,0,.17,1.08,17,17,0,0,0,2.42,6.81c.39.68,1,1.55,1.89.41.66-.83,1.13.13,1.69.23,0-.42-.16-1,0-1.15,1.52-1.17.31-2-.33-2.83A31.83,31.83,0,0,0,80.61,106.51Z"/>
<path fill="#fff" d="M90.66,105.54c-.13,0-.13-.51-.22-.78-.17-.49-.1-1.12-.74-1.39-.65.41-.67,1.1-.75,1.75-.32,2.5,0,4.86,1.76,6.83.25.27.33.77.8.72s.54-.5.73-.83c.64-1.16,0-2.1-.35-3.17S92.64,106,90.66,105.54Z"/>
<path fill="#fff" d="M92.77,69.38c.36-.15,1-.29.71-.86s-.74-.3-1.16-.14a2.33,2.33,0,0,0-1.57,2.13C91.16,69.6,92.07,69.69,92.77,69.38Z"/>
<path fill="#fff" d="M73,72.79a5.1,5.1,0,0,1,4.23-.35,3,3,0,0,0,2.84-1c-2.55-1.06-6.88-.29-8,1.35A.93.93,0,0,0,73,72.79Z"/>
<path fill="#fff" d="M68.33,79a3.77,3.77,0,0,0-2.59-2.8c-1.15-.42-1.73.32-2.15,1.55,1.53,0,2.55,1,3.72,1.59C67.71,79.56,68.49,79.84,68.33,79Z"/>
<path fill="#fff" d="M68.7,76.12c.33-.19,1.25.08,1.18-.6-.11-1-1.1-1.22-2-1.33-.54-.07-1.13.14-1,.73C67,75.77,67.73,76.09,68.7,76.12Z"/>
<path fill="#fff" d="M94.34,88.66c-.08-.28-.06-.6-.37-.76-.14.18-.24.45-.41.5s-.29-.22-.29-.42a13.29,13.29,0,0,1,.61-3.41c.14-.53,0-1.29-.43-1.5s-.75.48-1,.89a10.16,10.16,0,0,0-1,4.15c0,1-.11,2.45,1.08,2.68s1.44-1.2,1.81-2.13Z"/>
<path fill="#fff" d="M86.07,105a1.51,1.51,0,0,0,0-1.69A2,2,0,0,0,86.07,105Z"/>
<path fill="#fff" d="M74.55,90.63l-.33.3h0c.38,2.86,1.37,4,3.75,4.21.29-.8-1.4-.85-.74-1.57s0-.9-.31-1.2c-.77-.61-1.86-.78-2.37-1.74Z"/>
<path fill="#fff" d="M74.76,95.59c.15-.46-.47-.35-.8-.36h0a.46.46,0,0,1-.38.38h0C74,95.93,74.54,96.27,74.76,95.59Z"/>
<path fill="#fff" d="M78.28,91.46c.46,0,.39-.45.35-.74-.06-.45-.2-.87-.77-.88-.32.13-.64.31-.57.69A1.07,1.07,0,0,0,78.28,91.46Z"/>
<path fill="#fff" d="M74.79,96a4.91,4.91,0,0,0,2.15.92h0c0-.2.08-.38.35-.34A2.4,2.4,0,0,0,74.79,96Z"/>
<path fill="#fff" d="M68.68,99.89c-.19.66.63,1,.32,1.66-.83-.14-1.44-1-2.48-.94l.8,1.2h0a1.4,1.4,0,0,1,1.34,1.42c.69.46,1.13,1.54,2.21,1a1.65,1.65,0,0,0,.76-2C71.33,100.63,70.09,100.17,68.68,99.89Z"/>
<path fill="#fff" d="M197.78,168.74a11,11,0,0,0-6.41-.94c-2.2.17-4.47.34-6.52-.86a1.37,1.37,0,0,0-1.55.27,5.76,5.76,0,0,1-5.11.73,16.1,16.1,0,0,0-7.38-.77,4.51,4.51,0,0,1-1.16,0c-2.06-.15-2.53-1.14-1.37-2.86.78-1.15,1.84-2.09,2.56-3.29.34-.57.76-1.24.31-1.85a1.93,1.93,0,0,0-1.84-.54,5.31,5.31,0,0,0-2.44,1,21.65,21.65,0,0,0-3.52,2.93,1.16,1.16,0,0,1,.62-.15c.25,0,.4.11.37.38s-.35.59-.73.51c-.22-.06-.59-.16-.46-.51,0,0,0-.06.06-.09a15.64,15.64,0,0,0-1.33,1.58,4.36,4.36,0,0,1-4.91,1.79,73.79,73.79,0,0,1-34.74-16.75c-3.37-2.94-6-6.6-8.91-9.92a56.09,56.09,0,0,1-12.74-25.56,126.87,126.87,0,0,1-2.76-20.47c-.27-5-.67-10-1-15,0-.23-.07-.44-.08-.67-.22-3.83,2.07-5.73,5.79-4.75,1.77.46,3.47,1.17,5.24,1.68A7.64,7.64,0,0,0,111,75c.81-.12,1.44-.43.88-1.43a10.62,10.62,0,0,0-.83-1.16c-.46-.42-1-.77-1.48-1.17a42.82,42.82,0,0,0-12-5,25.88,25.88,0,0,1-5.77-2.93,9.61,9.61,0,0,0-2-1.14c-1.6-.45-3-1-3.6-2.81-.33-.91-1.43-1.17-2.36-1.41-1.72-.46-3.49-.64-5.23-1a7,7,0,0,1-2.18-.79A2.57,2.57,0,0,1,75,53.46c.21-1.7-.26-2.18-1.93-2.44a4.41,4.41,0,0,0-1.66,0,9.71,9.71,0,0,1-2.15.18c-3.56,0-4.63-1.41-3.76-4.83.54-2.14.1-3.42-1.48-4.3a4.76,4.76,0,0,0-5.43.66,2.78,2.78,0,0,0-.2,3.28,7.24,7.24,0,0,0,2,2.21c1.82,1.59,1.85,2.77.13,4.47a23.35,23.35,0,0,1-3.24,2.62A1.75,1.75,0,0,0,56.67,58a4.64,4.64,0,0,1-2.29,6.56c-1.06.52-2.25.6-3.34,1-2.3.86-2.85,2.39-1.62,4.39l.13.23,2-.32a3.21,3.21,0,0,1,2.21-1.1h0a2.41,2.41,0,0,1,1.63-.37,1,1,0,0,1-.87.72c-1,.32-1.84,1.12-3,1-.53.54-1.26.5-1.92.64a.76.76,0,0,1,0,.16c-1.45,1.37-3.35,2.12-4.73,3.65-2.43,2.69-3.36,5.69-1.82,9.05,2.69,5.86,4.22,12.06,5.65,18.31C52.85,120,61.3,136,73,150.18A76.35,76.35,0,0,0,107,173.9a92.49,92.49,0,0,0,24,4.8c6,.49,12.06,1.05,18.13,1,4.85-.06,9.64-.66,14.44-1.19a48.9,48.9,0,0,1,5.14-.53,13.06,13.06,0,0,0,4.07-.83c1.9-.64,3.79-1.3,5.74-1.78a7.78,7.78,0,0,1,4.75.06,2.4,2.4,0,0,0,2.24-.17,12.23,12.23,0,0,1,5-1.64,19.19,19.19,0,0,0,7.24-2.18M170.37,159c.34-.05.29.24.37.35,0,.35,0,.66-.41.63s-.3-.28-.29-.5S170.1,159.06,170.37,159ZM107.82,71.67c.17-.56.73-.24,1.14-.2l.64.08a1.07,1.07,0,0,0,1.21,1,.29.29,0,0,0,0,.09,2.05,2.05,0,0,0,.54,1.57c-.23.13-.55.43-.69.11-.43-.93-1.29-1.25-2.07-1.72C108.21,72.38,107.67,72.13,107.82,71.67ZM124.73,153c.28,0,.56.14.59.46s-.24.3-.46.26-.57-.13-.59-.45S124.52,153,124.73,153Zm-2.91-3.09c.24,0,.38.25.42.53s-.18.5-.47.54-.62-.15-.62-.41S121.35,149.92,121.82,149.87ZM96.7,90.81a27.56,27.56,0,0,1-.13,7.48A1.53,1.53,0,0,0,97,99.76c1.06,1.19.48,2.85.24,4.32-.11.67-.81,1.43.65,1.61.71.1.46,1,.29,1.6s0,1.12-1.14.8-.84,1.13-1.11,1.84h0c.17.41-.12.94.3,1.29.49-.86,1-2.21,1.9-2s.65,1.6.82,2.49c.85,4.43,2.41,8.66,3.42,13a2.43,2.43,0,0,0,.5.84c.55.7.63,1.28-.33,1.69a2,2,0,0,0-1.13,1.37c-.13.41-.33.82.45.93,2,.27,2.8,1.78,3.5,3.4h0l.58-.3h0c.17-.85.5-.54.82-.1,1.52,2.09,3.51,3.78,4.75,6.15a28.19,28.19,0,0,0,5.88,7.62c.63.59,1.55,1.23.95,2.5-.15.32.47,1.07.82,1.56,2.66,3.72,6.46,5.84,10.61,7.45.11,0,.21.09.32.12,2.74.84,5.32,1.7,7.33,4.14a8.65,8.65,0,0,0,8,3c.56-.07,1-.2,1,.72s1,1,1.64,1.21c1.64.5,3.32.89,5,1.34a5.51,5.51,0,0,1,2.4,1,6,6,0,0,1-5.32,1,74.86,74.86,0,0,1-11.32-3.79c-3.08-1.37-6.33-2.31-9.53-.08a2.27,2.27,0,0,1-1.68.68c.14-.91,1-1.3,1.38-2.21a4.13,4.13,0,0,0-2,1.57c-1.47,1.54-2.43,1.47-3.57-.3-.89-1.38-1.72-2.56-3.74-1.71-1.06.44-2.55-1.19-2.28-2.29,0-.16.15-.34,0-.39-1.64-.39-.34-1-.06-1.42.66-1,.54-1.29-.68-1.32A26.58,26.58,0,0,1,109,157.9a4.56,4.56,0,0,1-2.66-2.36c-.45-.84-.25-1.34.73-1.21,1.14.16,2.27.45,3.52.7-.52.51-1.37.42-1.28,1.17.06.55.61.77,1.06,1a8.87,8.87,0,0,0,5.64.42c-3.91-5.61-9.32-8.93-15.31-11.52-3.26-1.41-6.63-2.58-9.66-4.49-.44-.28-1-.44-1.21-1.28a14.44,14.44,0,0,1,5.64,2.36,5.2,5.2,0,0,0,2.93,1c1.28,0,1.68-.67,1.5-1.81a6.42,6.42,0,0,0-4.77-4.78,6,6,0,0,1-3-1.6l-2.66-2.39a9.56,9.56,0,0,0,2.79-.5,2,2,0,0,0,1.38-1.88c0-1.62-3-5.28-4.78-5.74.54,1.25,1.07,2.47,1.57,3.7.13.32.4.78-.18,1s-.71-.24-.86-.59a8.41,8.41,0,0,1-.58-1.56c-.47-2.16-2-3.08-4-3.48-.29.86-.14,1.81-.92,2.68-.44-1.45-1.12-1.92-2.64-1.66s-2.06-1.32-2-2.41c.26-2.7-1.2-4.25-3.07-5.7-.68-.53-1.28-1.18-2-1.87,1.13-.26,1.86.44,2.72.51s1.52.2,2-.54a1.72,1.72,0,0,0-.27-1.89c-.67-1-1.37-1.88-2.09-2.8s-1.23-.73-1.91,0-1.64,2.34-2.69,1.83-.44-2.2-.36-3.38c0-.66.13-1.32.19-2-1.69.06-2,1.06-1.74,2.41.09.55.15,1.1.25,1.65.16.85,0,1.26-1,1-.43-.11-1.08-.38-1.31.22s.39.87.74,1.2c1.39,1.33,2.81,2.64,4.58,4.3a2.1,2.1,0,0,0-2.23.57c-1,1-1.81.8-2.35-.51a14.93,14.93,0,0,1-.54-1.76c-.62-2.15-1.75-3.84-4.11-4.4,1.49-1.44,1.45-2.07-.15-3.35l-.13-.1c-.68-.68-2.32-1.15-2-1.87a7.44,7.44,0,0,1,2.67-3.12,1.22,1.22,0,0,1,1.52.22,5.07,5.07,0,0,1,1.6,2.1c.11.23-.21.34-.42.38-1.1.22-1.27,1-1.08,1.91a3.94,3.94,0,0,0,1.84,3c.53.28.83-.06.84-.63,0-2.15.55-4.33-.42-6.42h0c-.44-.46-.88-.93-1.33-1.39h0c-1.19-.47-2.19-1.16-3.73-.79-1.29.31-1.77-1.27-2.1-2.38-.27-.87-.08-1.6,1.09-1.49.39,0,.45-.18.48-.48.17-2.17,1.75-2.44,3.45-2.56.66,0,1.35.06,1.87-.5.88-.92,1.3-1.84.51-3.09A8.63,8.63,0,0,1,67,88c-.29-1.54.32-2.16,1.84-1.91a7.35,7.35,0,0,0,5.61-1.61,1.27,1.27,0,0,0,.43-2c1,0,1.86,0,2.74,0s1.57-.28,1.77-1.2.74-.83,1.47-.65a15.19,15.19,0,0,0,4.53.89c-.52-1-1.56-1.16-2.27-1.9a20.35,20.35,0,0,1,5.08-1.51c1.71-.38,3.5-.25,5.14-1.22,1.16-.69,2.24.1,2.64,1.66.76,3,.28,6-.29,8.93-.14.69-.47,1.28.49,1.73C96.6,89.51,96.6,90.25,96.7,90.81ZM150,171.66a5.7,5.7,0,0,1-2,1.91c-.22.16-.46.35-.71,0a.55.55,0,0,1,.08-.75A3.45,3.45,0,0,1,150,171.66Zm-4.67-.06c-.7.81-.94,1.48-1.73,1.4-.09,0-.25-.3-.21-.39C143.67,171.93,144.23,171.74,145.33,171.6Zm-3.38.24a2.07,2.07,0,0,1,2.21-1.78A2.55,2.55,0,0,1,142,171.84ZM139.67,170a1.56,1.56,0,0,0-1,.72c-1.16.11-1.25-.44-.72-1.25a3.3,3.3,0,0,1,2.85-1.07C141,169.35,140,169.5,139.67,170Zm0,2.09a.64.64,0,0,1-1,0c-.45-.52.29-.69.39-1a.74.74,0,0,1,1-.42C141,171.44,139.94,171.71,139.64,172.12Zm-4.1-1.15c-1.1-.7-1.91-1.1-3.12-.31-.25.16-.35-.61-.13-.92a6.27,6.27,0,0,1,3.47-2.69c.84-.23,1.23.44,1.22,1.81C137.07,170.05,135.9,171.2,135.54,171Zm-21.89-6.86a7.63,7.63,0,0,1,.83,0c.26,0,.64.13.56.43s-.47.18-.74.13a3,3,0,0,1-2.38-.46A2.86,2.86,0,0,1,113.65,164.11Zm-.26-1.78a3.84,3.84,0,0,1,2.83-.33C115.06,163.08,115.06,163.08,113.39,162.33Zm.31,9.4a2.69,2.69,0,0,1,1.69.32c2.89.58,5.86.85,8.52,2.35-2.26.37-4.39-.29-6.55-.66-.63-.37-1.56.18-2-.66l-1-.37-1-.62c-.49.08-.77-.27-1.11-.56C112.75,171.43,113.26,171.26,113.7,171.73Zm-4.48-1.25c-.58.48-.94-.15-1.84-.2.94-.66,1.42-.73,1.86-.25A.45.45,0,0,1,109.22,170.48ZM107,161.75c0,.38-.27.44-.55.36-.55-.16-1.31-.11-1.42-.84-.07-.42.48-.27.77-.35C106.31,161,106.94,161,107,161.75ZM95.87,160a1.32,1.32,0,0,1-1.92.64C94.41,160,95,160.1,95.87,160Zm-1.4-8a.43.43,0,0,1,.49.32c.1.37-.24.25-.39.44-.19-.17-.41-.28-.47-.44C94,152,94.29,152.07,94.47,152.06Zm.24,4.35c.9-.42,1.43-.49,1.89,0,.06.06,0,.35-.09.41C95.85,157.28,95.5,156.71,94.71,156.41Zm1.42-6.72a10.1,10.1,0,0,1-3-2.63,6.74,6.74,0,0,1,3.2,1.09,13.46,13.46,0,0,0,3.6,1.58c.3.06.69.23.62.64s-.51.33-.81.34A5.59,5.59,0,0,1,96.13,149.69Zm-6.21-5.64a6.92,6.92,0,0,1,4,1.85C92.46,145.68,90.89,145.77,89.92,144.05Zm12.18,9.16c-1.78.13-3-.16-4.1-1.54A6.19,6.19,0,0,1,102.1,153.21Zm.54,4a4.11,4.11,0,0,1-4.68-2A10.54,10.54,0,0,1,102.64,157.18Zm-1.14,8.21c.4,0,.77,0,.82.55-.08.34-.21.65-.61.62s-.8-.19-.85-.63S101.16,165.41,101.5,165.39Zm-.28-5.06c.57-.48,1.09-.2,1.87-.31C102.38,160.83,101.87,161,101.22,160.33Zm-3.8-13c2.73-.69,4.73,1.31,7.13,1.82C101.87,149.78,99.65,148.54,97.42,147.36Zm-19.21-9.25h0c-.36-.2-.89-.47-.52-.89s.71.12,1,.41h0l.58.31c.37.3.75.61,1.34.19-.3-.33-.51-.72-1-.83l-2.36-2h0c-.29,0-.58-.24-.46-.47.23-.41.74-.08,1.09-.24h0c-.34-.83-1.23-1.17-1.68-1.91h0c-.71-.5-.64-.81.24-.72.58.05,1,.07.84-.68h0c.31-1,1,.05,1.53-.31-.79-1-.42-1.35.71-1.06,1.76.46,3.52,1,5.25,1.44.1.66-.43.65-.73.79-2.11,1-2.11,1-.24,2.45l-1.65.11a.49.49,0,0,0,.28.71c2.1.77,2.55,3,4,4.46.78.77.51,2.53,2.15,3.36-.6,0-.86.16-1,.07C84.44,141.61,81.33,139.86,78.21,138.11Zm9.12,7.55c-.61.18-1-.17-1.63-.75a2.16,2.16,0,0,1,1.82.34S87.43,145.63,87.33,145.66ZM84,144.23c-.63.43-1.07,0-1.9-.46.92-.14,1.49-.3,2,.17A.36.36,0,0,1,84,144.23ZM72.14,124.46c-1.88-.53-2.61-1.92-3.3-3.46-.46-1-.16-1.49.83-1.38a26.55,26.55,0,0,1,4,1.54c.66.24,1.43.69,2,.07s-.06-1.33-.14-2c-.07-.53-1.29-1.12-.24-1.53.82-.32,1.15.62,1.3,1.36s.29,1.64.47,2.45A4.89,4.89,0,0,0,79,124.85a8,8,0,0,1,1.63,2.28c.17.26.41.57.1.89s-.65.14-.94,0c-1.2-.55-2.4-1.12-3.6-1.69A26.08,26.08,0,0,0,72.14,124.46Zm1.8,8.5c-.73,0-1.14-.39-1.71-.72C73.36,132,73.36,132,73.94,133Zm-4.42-2.91a1.19,1.19,0,0,1-1.07-1c.83-.3,1,.52,1.44.68s.6.57.48.68C70,130.77,69.73,130.38,69.52,130.05Zm.47,5.34a2.75,2.75,0,0,1-1.4-1.41A1.58,1.58,0,0,1,70,135.39Zm-1.17-10.75c.28,0,.52,0,.57.26a.33.33,0,0,1-.4.39.72.72,0,0,1-.52-.27C68.35,124.71,68.7,124.73,68.82,124.64Zm17.79,4.82c-.11-.15.11-.41.36-.44.91-.13,1.41.31,1.76,1.26A2.14,2.14,0,0,1,86.61,129.46Zm-14.7-14.93a.53.53,0,0,1-.57-.63c0-.18.22-.34.34-.5a.78.78,0,0,1,.5.65C72.22,114.28,72.2,114.54,71.91,114.53Zm-7.09-1.33c.21.12,0,.4-.15.53-.7.5-1.34.37-2.08-.28A1.89,1.89,0,0,1,64.82,113.2Zm-2.48-2.85c-.2,0-.49,0-.47-.26s.29-.25.5-.29.48,0,.46.28S62.54,110.35,62.34,110.35ZM60.58,87.94c1.63,0,3.26-.35,4.84.36a.8.8,0,0,1,.55.93c-.29,1.06-1.2,1.39-2.13,1.63a1.91,1.91,0,0,1-2.23-.7c-.34-.54.21-.58.62-.55.31-.2.82.18,1-.36C62.18,89.26,61.54,88.32,60.58,87.94Zm-.14,4.42c-.53.39-.89,0-1.25-.32a.8.8,0,0,1,1.27-.23A.33.33,0,0,1,60.44,92.36ZM74.8,58.59c.21.16.53.28.47.62s-.38.23-.64.23c-1.15,0-.38.73-.35,1.06.07.93.31,1.86-.49,1.85-2.48,0-5.47-3.51-5.14-5.3.09-.47.31-.72.78-.56C71.25,57.11,73.2,57.4,74.8,58.59ZM69,52.23a2.06,2.06,0,0,1,1.78.52A2.07,2.07,0,0,1,69,53.5c-.51,0-1.39.43-1.46-.41S68.36,52.3,69,52.23Zm.49,8.93h-6C65.52,59.39,67.74,59.36,69.44,61.16ZM61.09,44.77c-1.18-.13-1.87.19-1.57,1.59-.85-1.86-.3-3.54,1.23-4.26a2.61,2.61,0,0,1,3.52,1.22c.56,1,.38,1.59-.86,1.58C62.64,44.89,61.86,44.85,61.09,44.77ZM63.28,61a2,2,0,0,1-2.18.84A2.64,2.64,0,0,1,63.28,61ZM60.4,66.86a2.93,2.93,0,0,1,2.18-.69,8.51,8.51,0,0,1,2.67-.66C69.69,64.3,74.11,63,78.57,61.9c1.81-.46,2-.18,1.54,1.57-.12.43.11.61.28.86a5.53,5.53,0,0,1,1.18,2,3.5,3.5,0,0,1-2-1.4L79,65V65h0A2,2,0,0,1,79,67c-.54,1.8-1.63,2.16-2.91.88-.54-.53-.9-1.24-1.39-1.83s-.76-1.26-1.66-1.1c-.37.67,0,1.37-.11,2.06,0,0-.09.1-.11.09a.74.74,0,0,1-.21-.15c-2.14-1.45-4.57-1-6.93-1a.76.76,0,0,1-.21,0l-2.51.59a5,5,0,0,1-2.35.67,2,2,0,0,1-2,.51C59,66.71,59.8,67.05,60.4,66.86ZM47.53,80.46c-.66,1.78-.36,3.62-.29,5.49-2.77-2-3.42-6.53.18-8.36a21,21,0,0,1,6.69-2,3,3,0,0,0,.77,3.18,7.54,7.54,0,0,0,4,1.46,1.46,1.46,0,0,0,1.6-.64c.28-.68-.52-.9-1-1.13-1.53-.8-.68-1.3.38-1.82-.69-.38-1.23-.65-1.75-1-.32-.19-.79-.31-.73-.79s.52-.56.89-.64c1.85-.39,3.73-.66,5.55-1.15,5.14-1.4,10.25-2.92,15.39-4.31,2-.54,4-.85,6-1.27h1.53a.52.52,0,0,1,.07.15,3.4,3.4,0,0,0-.59,1.55c0,.64-.23,1.39.74,1.57.74.14,1.6.54,2.17-.17s.1-1.4-.34-2a14.6,14.6,0,0,0-1.49-1.45,79,79,0,0,1,10.32-.44c2.14.12,2.91,1.3,2,3.31a7.43,7.43,0,0,1-5,4.14A71.9,71.9,0,0,1,76,77.59c-3.12.07-5.66,1.86-8.33,3.19a22.62,22.62,0,0,1-5.43,2.07c-.51.1-1.19.4-.86-.7.27-.86-.39-.89-1-.81-1.1.16-2.19.4-3.29.5-.66.06-.62.35-.62.86,0,1.49-1,1.72-2.15,1.46A6.17,6.17,0,0,1,51.91,83c-2.33-1.72-2.31-3,.07-4.4C49.76,77.73,48.31,78.34,47.53,80.46Zm8.09,18.82c-.08-.54.52-.67,1-.64a1.44,1.44,0,0,1,1.35,1.22c.05.55-.27.56-.63.47C56.63,100.16,55.75,100.16,55.62,99.28Zm1.43,2.59c-.36.34-.78-.09-1.14-.28s-.63-.29-.48-.47c.38-.45.82-.13,1.21.12S57.34,101.59,57.05,101.87Zm.56-4.12a6,6,0,0,1-2.33-1.3,3.64,3.64,0,0,1,2.69.18c.28.1.64.3.45.72A.67.67,0,0,1,57.61,97.75Zm-2-7.34c0-.8.84-.68,1.41-.81.49.15,1.28.05,1.13.85a1.26,1.26,0,0,1-1.28,1.08C56.29,91.47,55.6,91.06,55.61,90.41Zm2.51,3.36c-.28,0-.57-.1-.6-.39s.24-.56.55-.69a.45.45,0,0,1,.55.43A.49.49,0,0,1,58.12,93.77Zm-8.64-.71a.42.42,0,0,1-.24-.53c0-.15.13-.31.34-.23a.42.42,0,0,1,.32.48C49.88,93,49.73,93.18,49.48,93.06Zm.17-8c0-.52.43-.51.78-.56s.61-.09.58.31-.34.64-.86.7C50,85.4,49.67,85.25,49.65,85.07Zm1.74,13.51c.88.46.92,1.35,1.1,2.35-1.12-.3-1.77-.79-1.76-1.83C50.73,98.78,51,98.39,51.39,98.58ZM53.27,107c.16-1.12-.72-2.08-.46-3.54a18.4,18.4,0,0,1,3.47,7.91c.12.61-.31.58-.73.49,1.6,2.67,2.06,5.78,3.52,8.66-1.89-.69-6.29-9.17-8.08-15.29C52.22,105.3,52.23,106.86,53.27,107ZM89.17,161c-.27.48-.75.33-1.19.25a10.1,10.1,0,0,1-6.1-3.78,15.58,15.58,0,0,0-2.82-2.56,29.74,29.74,0,0,1-8.25-9.5c-3.09-5.46-6.84-10.48-10.16-15.79a43.34,43.34,0,0,1-4.9-10.69,13.3,13.3,0,0,1,3.39,5.46,22.89,22.89,0,0,0,4.6,7.46,13.54,13.54,0,0,1,2.91,4.42,1.66,1.66,0,0,0,.57.78c2.22,1.42,3.16,3.63,3.86,6,.58,2,1.41,3.7,3.88,4,1,.12,1.26,1.31,1.71,2.13.78,1.42,1.56,2.86,3.45,3,.21,0,.39,0,.48.31a6.87,6.87,0,0,0,4.62,4.61,7.48,7.48,0,0,1,3.62,2.83C89.05,160.22,89.41,160.54,89.17,161Zm-2.33-9.13a1.91,1.91,0,0,1,1.93.6C87.92,152.82,87.58,152.3,86.84,151.82Zm5.65-1.75a7.78,7.78,0,0,1-2.63.36,10.28,10.28,0,0,1-6.39-2.33c-.4-.34-.88-.8-.55-1.42s.88-.41,1.36-.41a14.45,14.45,0,0,1,4.84,1.1c1.13.43,2.29.81,3.43,1.24.36.13.78.28.76.76S92.85,149.93,92.49,150.07Zm3.1,17.15c-.41.61-1-.06-1.39-.42-.33-.13-.66-.26-.75-.68.49-.21.81.13,1.17.31S95.9,166.74,95.59,167.22Zm46.29,11.65a182.35,182.35,0,0,1-27.25-3.5,46.05,46.05,0,0,1-11.69-4.2h0a14.65,14.65,0,0,1-3.3-1.43,7.36,7.36,0,0,1-2.7-1.27c-.33-.29-1-.29-1-.88,0-.29.42-.17.65-.23l.73.69c.85.5,1.9.62,2.64,1.34h0l.64,0c1,.24,2.06.35,2.71,1.32h0c.3-.06.65.2,1.06-.32L101,169.13A26.92,26.92,0,0,0,96.66,167c-.24-1-1.45-.95-2-2A8.76,8.76,0,0,1,98,166.1a102.5,102.5,0,0,0,16.92,7.39,2.21,2.21,0,0,0,1.44.61,48.56,48.56,0,0,0,20.15,2.49,3.33,3.33,0,0,1,1.63-.05c2.56,1,5.21.9,7.89.66,2.3-.2,4.64-.37,7,.8A44.92,44.92,0,0,1,141.88,178.87Zm13.53-.53c-.27,0-.62-.17-.59-.44s.37-.49.75-.48.55.11.53.41A.58.58,0,0,1,155.41,178.34Zm14.67-7.88c-3.28,0-6.53-.62-9.81-.41-.38,0-1,.18-1.08-.45,0-.46.43-.74.83-.95a5.2,5.2,0,0,1,2.42-.52c3.62,0,7.13.81,11,1.2A3.93,3.93,0,0,1,170.08,170.46Zm6.25-.43a.38.38,0,0,1-.34-.46.59.59,0,0,1,.56-.5c.27,0,.32.23.3.46S176.67,170.06,176.33,170Zm7.46-.57a.45.45,0,0,1-.33-.25.58.58,0,0,1,.41-.65c.21-.07.38.15.41.4S184.09,169.46,183.79,169.46Zm9.3.25-.83.08h0a4.15,4.15,0,0,1-2.15.25,5,5,0,0,1-3.41-.35,2.52,2.52,0,0,1,1.88-.32h0a19.08,19.08,0,0,1,5.77-.21C194,169.91,193.52,169.68,193.09,169.71Z"/>
<path fill="#fff" d="M76.42,108a.57.57,0,0,0-.52.71c.14.53.39,1.08,1,1.18.33.06.33-.36.36-.73C77.05,108.73,77.15,108,76.42,108Z"/>
<path fill="#fff" d="M71.6,95.7a.64.64,0,0,0-.59.08c-.28.29,0,.6.1.89,1.31,2.76,4.24,2.24,6.43,3.26A13.76,13.76,0,0,0,71.6,95.7Z"/>
<path fill="#fff" d="M82.7,121.19c-.1.07-.33.19-.32.24a1.46,1.46,0,0,0,.34.68c.19.15.39,0,.42-.28S83,121.33,82.7,121.19Z"/>
<path fill="#fff" d="M73.47,108.24a1.59,1.59,0,0,0-.4-1.88C72.83,107.15,72.59,107.78,73.47,108.24Z"/>
<path fill="#fff" d="M68.49,97.46c1.47,1.31,2.21,3.77,5.22,3.4A10,10,0,0,0,68.49,97.46Z"/>
</svg>