<svg xmlns="http://www.w3.org/2000/svg" xmlns:xlink="http://www.w3.org/1999/xlink" viewBox="0 0 241 300" id="html">
<path fill="#f84700" d="M121.87,250H119c-.15-.68-.68-.88-1.26-1-16.93-4.68-33.81-9.51-50.8-13.95-3.42-.89-4.35-2.41-4.61-5.63-1.52-19-3.21-38-4.89-57-2-23-4.07-45.91-6.25-68.85-.4-4.2.07-8.54-1.67-12.57V89.19q22.62,0,45.23,0,46.85,0,93.69,0c1.84,0,3-.11,2.76,2.57-2.13,22.37-4.08,44.76-6.06,67.14q-3.14,35.46-6.18,70.94c-.23,2.8-1.17,4.16-4,4.92-15.38,4.08-30.72,8.36-46,12.7C126.48,248.17,123.85,248.2,121.87,250ZM121,118.63v.07H79.85c-3.74,0-3.75,0-3.4,3.83,1.45,15.89,3,31.77,4.32,47.66.16,1.95.83,2.37,2.62,2.35,7.4-.08,14.79,0,22.18,0,11.29,0,22.57.09,33.85,0,1.94,0,2.75.3,2.49,2.52-.71,6-1.25,12-1.68,18a2.6,2.6,0,0,1-2.34,2.71c-4.33,1.09-8.62,2.33-13,3.4-1.93.48-3.76,1.53-5.93.91q-8-2.26-16-4.3a2.63,2.63,0,0,1-2.25-2.86c-.2-3.29-.72-6.57-.88-9.87-.08-1.74-.79-2.06-2.32-2-4.38.08-8.76.15-13.13,0-2.21-.08-2.79.45-2.53,2.75.85,7.44,1.56,14.9,2.06,22.37.14,2.25.88,3.2,3,3.77,9.19,2.46,18.32,5.13,27.51,7.6,3.12.84,6.12,1.94,9.63.87,9.84-3,19.77-5.71,29.73-8.3,2.53-.66,3.33-1.81,3.53-4.32,1.29-15.8,2.71-31.59,4.16-47.38.36-3.85.49-3.84-3.31-3.84-19.27,0-38.53,0-57.79.1-2.19,0-3.26-.24-3.33-2.86a90.69,90.69,0,0,0-1.21-12.18c-.41-2.58.41-3,2.82-3,20.71.11,41.43.06,62.15.15,1.95,0,2.67-.4,2.79-2.47.24-4.36.77-8.72,1.27-13.07.21-1.74,0-2.61-2.14-2.59C148.82,118.67,134.91,118.63,121,118.63Z"/>
<path fill="#fff" d="M121,118.63c13.91,0,27.82,0,41.73,0,2.16,0,2.35.85,2.14,2.59-.5,4.35-1,8.71-1.27,13.07-.12,2.07-.84,2.48-2.79,2.47-20.72-.09-41.44,0-62.15-.15-2.41,0-3.23.46-2.82,3a90.69,90.69,0,0,1,1.21,12.18c.07,2.62,1.14,2.87,3.33,2.86,19.26-.09,38.52-.08,57.79-.1,3.8,0,3.67,0,3.31,3.84-1.45,15.79-2.87,31.58-4.16,47.38-.2,2.51-1,3.66-3.53,4.32-10,2.59-19.89,5.3-29.73,8.3-3.51,1.07-6.51,0-9.63-.87-9.19-2.47-18.32-5.14-27.51-7.6-2.12-.57-2.86-1.52-3-3.77-.5-7.47-1.21-14.93-2.06-22.37-.26-2.3.32-2.83,2.53-2.75,4.37.17,8.75.1,13.13,0,1.53,0,2.24.29,2.32,2,.16,3.3.68,6.58.88,9.87A2.63,2.63,0,0,0,103,195.8q8,2,16,4.3c2.17.62,4-.43,5.93-.91,4.34-1.07,8.63-2.31,13-3.4a2.6,2.6,0,0,0,2.34-2.71c.43-6,1-12,1.68-18,.26-2.22-.55-2.53-2.49-2.52-11.28.06-22.56,0-33.85,0-7.39,0-14.78,0-22.18,0-1.79,0-2.46-.4-2.62-2.35-1.37-15.89-2.87-31.77-4.32-47.66-.35-3.83-.34-3.83,3.4-3.83H121Z"/>
<path fill="#fff" d="M130.85,65.37c0,3.3,0,6.6,0,9.91,0,1.43-.34,2-1.94,2.06-7,.26-7,.32-7-6.7,0-6.13,0-12.25,0-18.38,0-1.58.34-2.17,2.08-2.21,7.39-.18,7.38-.24,11.24,6.23.53.89.83,2,2.07,2.55,1.47-2.38,3-4.71,4.37-7.12a2.84,2.84,0,0,1,2.7-1.66c8-.2,8-.25,8,7.69,0,5.73-.05,11.47,0,17.21,0,1.71-.42,2.36-2.27,2.39-7,.13-7,.2-7-6.65V65.27l-.57-.17c-1.08,1.64-2.18,3.27-3.24,4.92-2.34,3.63-2.33,3.64-4.6.16-1.09-1.68-2.19-3.35-3.29-5Z"/>
<path fill="#fff" d="M89.48,63.78c0,3.8-.06,7.59,0,11.38,0,1.6-.41,2.15-2.12,2.18-7,.13-7,.19-7-6.87,0-1.9-.49-2.46-2.44-2.44-5.68,0-5.84,0-5.62,5.8.11,2.81-.66,3.65-3.5,3.53C63,77.14,63,77.3,63,71.6c0-6.42.07-12.85,0-19.26,0-1.79.43-2.29,2.25-2.3,6.84,0,6.92-.09,7,6.58,0,1.85.6,2.25,2.34,2.26,5.78,0,5.9.09,5.74-5.77-.07-2.39.54-3.14,3-3.08,6.23.17,6.24,0,6.24,6.16Z"/>
<path fill="#fff" d="M101,68.12c0-2.23-.1-4.47,0-6.7.1-1.78-.52-2.33-2.31-2.36-5.49-.07-5.33-.16-5.56-5.71-.11-2.72.68-3.41,3.34-3.32,6.4.2,12.82.12,19.23,0,1.79,0,2.84.32,2.46,2.37a3.74,3.74,0,0,0,0,.58c0,5.81,0,5.89-5.79,6.05-1.77,0-2.09.74-2.07,2.28.07,4.47,0,9,0,13.42,0,1.73-.22,2.59-2.34,2.6-7,0-7,.13-7-6.9Z"/>
<path fill="#fff" d="M156.52,63.47c0-3.79.06-7.59,0-11.37,0-1.51.4-2,1.95-2.05,7.3-.31,7.29-.36,7.29,6.8,0,3,.13,6,0,9-.11,1.89.58,2.3,2.32,2.22,2.8-.14,5.63,0,8.44-.07,1.54-.06,1.93.49,2,2,.23,7.26.28,7.26-6.95,7.26-4.27,0-8.54-.06-12.81,0-1.66,0-2.21-.56-2.17-2.2C156.58,71.24,156.52,67.35,156.52,63.47Z"/>
</svg>