<svg xmlns="http://www.w3.org/2000/svg" viewBox="0 0 200 200" id="js">
<rect fill="#f2d41a" width="200" height="200"/>
<path fill="#000" d="M164.22,115.1c-.27-.19-.33-.5-.47-.77a13.56,13.56,0,0,0-7-6.39,11.54,11.54,0,0,0-8.7,0,7.8,7.8,0,0,0-4.88,8.71,8.65,8.65,0,0,0,3.87,6.13,34,34,0,0,0,6.17,3.27c3.65,1.61,7.37,3.09,11,4.81a51.68,51.68,0,0,1,10.48,6.44A23.5,23.5,0,0,1,184,153.62a29.87,29.87,0,0,1,.07,8.55A23.07,23.07,0,0,1,173.21,179a32.32,32.32,0,0,1-11.67,4.48A45,45,0,0,1,136.2,181a29.18,29.18,0,0,1-9.49-5.92,46.25,46.25,0,0,1-5.62-6.47,18.59,18.59,0,0,1-1.63-2.8c-.4-.81-.43-.7.31-1.13l3.61-2.07,10.1-5.83c.17-.1.34-.19.5-.3a.31.31,0,0,1,.49.1c.12.19.25.37.37.55a35.64,35.64,0,0,0,3.83,4.83,17.92,17.92,0,0,0,9.79,5.33,20.5,20.5,0,0,0,11.23-.93,9.92,9.92,0,0,0,3.37-2.1,7.76,7.76,0,0,0,2.45-5.4,11.78,11.78,0,0,0-.2-2.9,7,7,0,0,0-1.71-3.29,14.63,14.63,0,0,0-3.34-2.73,52.62,52.62,0,0,0-6.93-3.45c-3.64-1.57-7.32-3-10.87-4.83a53.51,53.51,0,0,1-8.15-5,22.91,22.91,0,0,1-7.18-9,26.83,26.83,0,0,1-1.72-18.13,23.2,23.2,0,0,1,13.2-15.81,34.74,34.74,0,0,1,4.74-1.8,27.27,27.27,0,0,1,3.68-.65A36.37,36.37,0,0,1,164.9,93a23.86,23.86,0,0,1,8,5.26,40.06,40.06,0,0,1,5.59,7.12c.25.38.18.55-.18.78-2.37,1.49-4.73,3-7.1,4.51l-6.3,4.06A2.45,2.45,0,0,1,164.22,115.1Z"/>
<path fill="#000" d="M108.85,125.62c0,6.36,0,12.72,0,19.08,0,2.56.09,5.11.1,7.67a71.25,71.25,0,0,1-.46,9.23A27.64,27.64,0,0,1,104.61,173c-3,4.78-7.36,7.76-12.58,9.64A28.62,28.62,0,0,1,85.69,184a37.75,37.75,0,0,1-7.81.19c-6-.51-11.61-2.17-16.46-5.91A30.09,30.09,0,0,1,53,167.78c-.27-.52-.26-.54.22-.84l14.21-8.7c.54-.33.56-.32.88.23.64,1.08,1.26,2.16,2,3.2a17.28,17.28,0,0,0,2.37,2.89,9.79,9.79,0,0,0,5.71,2.83,13.87,13.87,0,0,0,5.37-.22,7.8,7.8,0,0,0,6-6.56,37,37,0,0,0,.49-6.72c0-8.2-.11-16.39-.07-24.58q.08-18.21.08-36.42c0-1-.09-.91.88-.91h17c.88,0,.81,0,.81.81v32.83Z"/>
</svg>