<svg xmlns="http://www.w3.org/2000/svg" xmlns:xlink="http://www.w3.org/1999/xlink" viewBox="0 0 285 284" id="python">
<path fill="#fff" d="M114.57,56.72a9.79,9.79,0,1,0,9.81,9.75A9.77,9.77,0,0,0,114.57,56.72Z"/>
<path fill="#fff" d="M170.06,207.91a9.79,9.79,0,1,0,9.81,9.75A9.79,9.79,0,0,0,170.06,207.91Z"/>
<path fill="#ffd500" d="M178.23,189.69c-11.44,0-22.88,0-34.31,0-1.22,0-1.68.26-1.56,1.54a24,24,0,0,1,0,4c-.08,1.1.32,1.34,1.37,1.33q17.93,0,35.85,0c3.43,0,6.86,0,10.28,0,.88,0,1.18.21,1.18,1.13,0,7.72.06,15.43,0,23.14,0,3.59-1.74,6.58-4.14,9.15-3.95,4.23-9,6.55-14.45,8.19a91.48,91.48,0,0,1-23,3.4,132.76,132.76,0,0,1-20.14-.58c-8.6-1-17-2.71-24.47-7.4-5.51-3.46-9.44-8.12-10.61-14.74a28.79,28.79,0,0,1-.12-5c0-14.57,0-29.13,0-43.69a24.83,24.83,0,0,1,4.81-15.41c3.81-5,9-7.71,15-9.15a35.87,35.87,0,0,1,8.52-1q23.51,0,47,0A30.78,30.78,0,0,0,182.6,142c6.87-3.14,11-8.63,13.23-15.69A34,34,0,0,0,197.41,116c0-7.42,0-14.83,0-22.24,0-1.35.41-1.61,1.65-1.59q7.13.1,14.26,0c7.29-.1,13.19,2.85,18,8.11,4.55,4.94,7.09,10.93,8.83,17.32a55.76,55.76,0,0,1,2.08,16c-.14,6.77.4,13.57-.13,20.3-.87,10.83-4,20.94-12.28,28.69a26.72,26.72,0,0,1-19.2,7.22c-10.79-.07-21.59,0-32.38,0Zm-8.13,19a8.63,8.63,0,0,0-8.74,8.67,8.73,8.73,0,0,0,8.79,8.8,8.83,8.83,0,0,0,8.64-8.83A8.71,8.71,0,0,0,170.1,208.7Z"/>
<path fill="#1075a7" d="M106.48,93.6c11.57,0,23.13,0,34.7,0,1,0,1.44-.22,1.37-1.33a33.39,33.39,0,0,1,0-4.36c.08-1.08-.34-1.26-1.31-1.26-5.87,0-11.74,0-17.61,0-9.42,0-18.84,0-28.27,0-1,0-1.37-.2-1.37-1.31,0-6.89.09-13.79-.13-20.68-.19-5.92,2.38-10.3,6.84-13.78,4.77-3.72,10.36-5.6,16.15-6.94a101.25,101.25,0,0,1,18.84-2.28,116.28,116.28,0,0,1,28.48,2,45.66,45.66,0,0,1,16.71,6.65c5.37,3.68,8.89,8.58,9.8,15.15a10.87,10.87,0,0,1,0,1.28c0,15.12.05,30.24,0,45.36,0,5.27-.95,10.4-3.89,15-3.91,6.07-9.76,9.15-16.59,10.71a31.69,31.69,0,0,1-7,.76q-23.58,0-47.16,0a32.18,32.18,0,0,0-14.11,2.77c-6.84,3.27-10.83,8.85-13,15.92a36.28,36.28,0,0,0-1.52,10.77c0,7.28,0,14.56,0,21.84,0,.94-.2,1.23-1.18,1.22-5.31,0-10.63.12-15.94-.06-7.24-.25-13-3.65-17.54-9.15s-7-12-8.54-18.9a96.4,96.4,0,0,1-2.11-19.24,88.48,88.48,0,0,1,2.34-23.56c1.7-6.73,4.42-13,9.28-18.07a26,26,0,0,1,19.17-8.53c11.18-.09,22.36,0,33.54,0Zm8.32-36.52a8.75,8.75,0,1,0,8.76,8.71A8.75,8.75,0,0,0,114.8,57.08Z"/>
</svg>