<svg xmlns="http://www.w3.org/2000/svg" viewBox="0 0 200.02 200" id="ruby">
<path fill="#fa2f25" d="M97.2,4.09l4.39-2.2,4-1.88,0,.09a8.6,8.6,0,0,1,1.28.66c10.55,7,21.24,13.88,31.77,20.94A1.3,1.3,0,0,1,139,22a.93.93,0,0,1,0,.44c-5.53,16.5-11,33-16.53,49.52a1.41,1.41,0,0,1-.21.38c-16.6,14.83-33.31,29.54-49.88,44.4a1.79,1.79,0,0,1-.39.2c-10.55,3.46-21.06,7-31.6,10.5q-9,3-17.9,6a.82.82,0,0,1-.44,0c-2.16-3.06-4.18-6.21-6.26-9.33-5-7.43-9.76-15-14.79-22.41-.44-.66-1-1.3-.67-2.22l1.16-2.29.29-.58c.37-1.54,1.45-2.72,2.05-4.15C4.5,91.22,5.25,90,5.9,88.74c1-1.61,1.89-3.29,2.85-4.93a13.47,13.47,0,0,0,1.41-2.37,16.49,16.49,0,0,1,1-1.75A46.53,46.53,0,0,0,13.7,75.2a14.88,14.88,0,0,1,.88-1.56,17.65,17.65,0,0,0,1.66-2.93c.79-1.41,1.63-2.79,2.39-4.22s1.66-2.93,2.56-4.36A8.77,8.77,0,0,1,23,59.77c.7-.67,1.38-1.36,2.06-2.06s1.55-1.53,2.31-2.31,1.37-1.35,2-2c.87-.85,1.72-1.72,2.58-2.58.6-.58,1.18-1.17,1.76-1.76.78-.76,1.54-1.53,2.3-2.3s1.36-1.35,2-2c.88-.84,1.73-1.71,2.59-2.58.59-.57,1.18-1.16,1.75-1.75q1.17-1.14,2.31-2.31c.69-.66,1.36-1.34,2-2,.87-.85,1.73-1.72,2.58-2.58.6-.57,1.18-1.16,1.76-1.76.78-.75,1.54-1.53,2.3-2.3s1.36-1.35,2-2S57,25.81,57.73,25,59.12,23.66,59.8,23a5.52,5.52,0,0,1,2.63-1.8c1.43-.8,2.92-1.48,4.37-2.25,1.27-.57,2.47-1.29,3.76-1.82,2.7-1.16,5.23-2.65,7.84-4,.43-.22.88-.4,1.3-.62,1.47-.79,3-1.5,4.44-2.27,1.31-.42,2.32-1.57,3.82-1.52Z"/>
<path fill="#ff4848" d="M138.86,22a2.92,2.92,0,0,1-1.41-.66c-5.69-3.79-11.34-7.67-17.11-11.34-4.61-2.92-9.12-6-13.68-9A3.54,3.54,0,0,1,105.59.1L110,0H162l4,.07,0,.55c-8.56,7-17.2,13.8-25.81,20.69C139.82,21.63,139.46,22.06,138.86,22Z"/>
<path fill="#d81f18" d="M138.86,22l25.3-20.23c.58-.47,1-1.25,1.88-1.17l4.64.83,1.46.32a9,9,0,0,1,4.3,1.41c.17.78.79.4,1.23.48a4.39,4.39,0,0,1,1.46.52c.59.38,1.33.53,1.76,1.15s1.08.84,1.75,1a2.56,2.56,0,0,1,.91.4,12.27,12.27,0,0,1,4.09,3.45,1.33,1.33,0,0,0,.86.88,10.87,10.87,0,0,1,3.12,3.18,1.79,1.79,0,0,1,.32.7.86.86,0,0,0,.7.9,19.46,19.46,0,0,1,2,2.94,23.79,23.79,0,0,1,1.94,4.49c0,.8-.08,1.64.73,2.18a8.52,8.52,0,0,1,.84,2.13,44.75,44.75,0,0,1,1.1,5.24,2.26,2.26,0,0,1,0,.86,5.63,5.63,0,0,1-.23.92c-.12.34,0,.41.3.39a1.7,1.7,0,0,1,.35,1.21,7.21,7.21,0,0,0,.18,2.22,3.89,3.89,0,0,1,.09.47,15.9,15.9,0,0,1,.05,1.69c0,1.31,0,2.63,0,3.94,0,.31,0,.62-.08.92a1.45,1.45,0,0,1-.12.42,1.58,1.58,0,0,1-.2.36,2.58,2.58,0,0,0-.06,2.09,1.94,1.94,0,0,1,.07.42,1.42,1.42,0,0,1-.24,1c-.55.33-1,0-1.49-.2-11-5.06-22-10-33-15C157,31,149,27.36,141.07,23.8c-.81-.36-1.78-.56-2.2-1.51A2.44,2.44,0,0,0,138.86,22Z"/>
<path fill="#ff4848" d="M.32,99.48c-.1.64.33,1.09.64,1.55q6.48,9.66,12.79,19.45c2.42,3.77,5,7.43,7.53,11.15a3.62,3.62,0,0,1,.74,1.7,5.35,5.35,0,0,1-1.57,2.38q-9.37,11.76-18.78,23.47c-.43.53-.7,1.32-1.57,1.37L0,157.62V101.25C.21,100.68-.24,100,.32,99.48Z"/>
<path fill="#d81f18" d="M.1,160.55l13.25-16.48q4.32-5.37,8.67-10.74l.28,0c.88.41.9,1.32,1.15,2.06q10.33,31,20.65,61.92a7.13,7.13,0,0,1,.6,2.07.53.53,0,0,1-.3.37,14.46,14.46,0,0,1-3.83.2c-1.45.12-2.86-.3-4.3-.3-1.14-.07-2.27-.29-3.42-.39-1.73-.41-3.5-.67-5.21-1.17-1.19-.51-2.56-.52-3.64-1.33a2.41,2.41,0,0,0-2-.83,1.07,1.07,0,0,1-.93-.55,2.73,2.73,0,0,0-1.95-.86,1.68,1.68,0,0,1-.39-.07c-1.11-.56-2.1-1.3-3.17-1.94-.39-.35-.84-.62-1.25-.93a39.56,39.56,0,0,1-7.23-7.51,3.92,3.92,0,0,1-.69-1.44c-.11-.48-.21-1-.74-1.2a1.2,1.2,0,0,1-.57-1,2.73,2.73,0,0,0-.92-2,3.94,3.94,0,0,1-1.08-2.25c-.15-.43.41-1.1-.45-1.28-.77-.81-.6-1.91-.86-2.87l-.32-1.46L1,167.74c.17-1.36-.46-2.65-.21-4-.12-.18-.33,0-.14,0s.09,0,.1.09c.07.32.15.65-.15.9-.4-.35-.12-.85-.27-1.26Z"/>
<path fill="#d81f18" d="M53.84,198.71l-.57.26a27.52,27.52,0,0,0-4.63.34l-.6-.09c-.58-.09-1.18.26-1.76,0a.86.86,0,0,0-.19-.1,1.12,1.12,0,0,1,0,.13.26.26,0,0,1-.16.29l-1.12.1-.28-.1v-.24a2.33,2.33,0,0,1,.1-1.95q13.22-39.59,26.4-79.19a2.49,2.49,0,0,1,1-1.55l.31,0c.7-.39,1.31,0,1.91.28,9.94,4,19.91,7.85,29.85,11.8C117.07,133.77,130,138.85,143,144a2.12,2.12,0,0,0,1.66.32c-.69-2.3-1.45-4.58-2.18-6.85-4.41-13.61-8.7-27.26-13.11-40.87-2.4-7.43-4.74-14.87-7.13-22.3-.2-.62-.55-1.26-.15-1.94l0-.31c.57-.87,1.56-.89,2.42-1.14l34.16-9.76q18.89-5.39,37.77-10.78a2.85,2.85,0,0,1,2-.18c.84.57.21,1.51.57,2.2l0,1.45a.67.67,0,0,1-.23.1c-.37,1.84-.48,3.71-.88,5.54a123.93,123.93,0,0,1-7.61,23A189.09,189.09,0,0,1,168.88,119a246.16,246.16,0,0,1-21.24,24.92c-.6.63-1.3,1.16-1.84,1.83-4,4.25-8.37,8.11-12.76,11.94A212.8,212.8,0,0,1,110,175.28,169.61,169.61,0,0,1,72,194.4a86.35,86.35,0,0,1-16.06,4.08C55.24,198.57,54.5,198.33,53.84,198.71Z"/>
<path fill="#ff4848" d="M122.07,72.35q4.61,14.39,9.21,28.78,5.88,18.38,11.75,36.75c.66,2.06,1.3,4.12,2,6.18.09.31.38.64.1.94s-.65,0-.92-.12q-5.78-2.24-11.52-4.54-10.25-4.07-20.48-8.13-12.86-5.1-25.72-10.16-7-2.76-14.08-5.49c1.63-2.16,3.84-3.7,5.82-5.48,6.45-5.8,12.93-11.54,19.41-17.3L112,81l9-8C121.32,72.7,121.57,72.31,122.07,72.35Z"/>
<path fill="#ff4848" d="M72.06,116.57q-6,18-12,35.93-7.57,22.68-15.13,45.37c-.15.45-.22.92-.33,1.39-.6-.44-.63-1.16-.84-1.78q-10.58-31.66-21.12-63.33c-.09-.27-.21-.54-.32-.8,1.27-1,2.87-1.2,4.32-1.71,4.32-1.53,8.69-2.93,13.05-4.37L49.74,124Z"/>
<path fill="#ff4848" d="M198.44,50.35a59.39,59.39,0,0,0-7.35,2Q171,58,151,63.73,136.53,67.86,122.09,72q5.55-16.74,11.11-33.48,2.48-7.44,5-14.88a2.46,2.46,0,0,1,.69-1.39L158,31q7.07,3.24,14.14,6.45l24.25,11,2.88,1.29a1,1,0,0,1-.2.89C198.84,50.55,198.68,50.36,198.44,50.35Z"/>
<path fill="#c81b03" d="M193.28,127.26l-.05,1.16c0,.19.18.4,0,.58a6.76,6.76,0,0,0-.22,2.61,19.35,19.35,0,0,1,0,4.81,8.46,8.46,0,0,0-.2,2.7c-.32,2.78-.56,5.56-.69,8.35a9,9,0,0,0-.18,2.68q-.36,3.58-.57,7.18c0,.32,0,.65-.1,1,0,.15-.07.31-.11.46a20.83,20.83,0,0,0-.11,3.06c-.34,1.54-.15,3.13-.36,4.68a11.09,11.09,0,0,0-.22,2.87c-.29,1.39-.21,2.82-.4,4.22a9.7,9.7,0,0,0-.15,2.63c-.32,1.74-.21,3.5-.38,5.24-.36,2.12-.3,4.27-.61,6.39a.76.76,0,0,1-.41.5,2.55,2.55,0,0,1-1.66-1c-13.44-13.49-26.94-26.9-40.37-40.39a2.65,2.65,0,0,1-.93-1.41,238,238,0,0,0,21-24,205.48,205.48,0,0,0,18.75-29.42,138.41,138.41,0,0,0,11.81-30.65,64.37,64.37,0,0,0,1.6-8.21l.1.68c0,1,0,2,0,3.07a16.27,16.27,0,0,0-.34,4.06,8.14,8.14,0,0,0-.23,2.6l-.57,7.22v1.17c.09.11.07.21-.06.29a8.77,8.77,0,0,0-.22,2.89,25.31,25.31,0,0,0-.35,4.91l-.26.3a1.7,1.7,0,0,0-.07,1.43l.09,1.16a78.42,78.42,0,0,0-.62,8.1,6.89,6.89,0,0,0-.25,2.89,1.19,1.19,0,0,1-.05,1.14,3.75,3.75,0,0,0-.23,2c-.1,1.35-.19,2.7-.29,4v.88a.18.18,0,0,1-.05.29,7.19,7.19,0,0,0-.24,2.31,36.06,36.06,0,0,0-.34,5.49,6.3,6.3,0,0,0-.24,2.89,21.8,21.8,0,0,0-.35,4.34,7.9,7.9,0,0,0-.22,2.61C193.66,122.45,193.47,124.86,193.28,127.26Z"/>
<path fill="#aa1500" d="M145.52,145.5l40.7,40.61c.74.73,1.41,1.53,2.12,2.3-.36.69-1,.5-1.6.54a5.58,5.58,0,0,0-1.52.16,5.05,5.05,0,0,1-.95.13,5.9,5.9,0,0,1-.73,0,38.2,38.2,0,0,0-3.84.31,8.51,8.51,0,0,0-2.36.15,7,7,0,0,1-1.21.13,8.46,8.46,0,0,0-2.65.19c-1.5.17-3,.09-4.49.39a14.13,14.13,0,0,0-3,.18c-1.57.18-3.17.11-4.73.39a12.09,12.09,0,0,0-2.62.13,3.42,3.42,0,0,1-.71.13l-.49,0a37.3,37.3,0,0,0-4.08.29,7.79,7.79,0,0,0-2.36.17,7.09,7.09,0,0,1-1.21.12,8.61,8.61,0,0,0-2.68.2c-2.73.18-5.46.34-8.17.66a16.85,16.85,0,0,0-3,.19c-1.49.21-3,.06-4.48.38a16.31,16.31,0,0,0-2.88.15,4.16,4.16,0,0,1-.72.12c-.24,0-.48,0-.72,0a37.73,37.73,0,0,0-3.84.3,8.91,8.91,0,0,0-2.36.16,8,8,0,0,1-1.2.13,8.3,8.3,0,0,0-2.63.18,8.35,8.35,0,0,1-1.73.12c-1.92.1-3.83.28-5.75.46-1.58.18-3.18.11-4.75.39a11.06,11.06,0,0,0-2.63.13,2.85,2.85,0,0,1-.72.12l-.49,0c-1.4-.1-2.78.26-4.17.29-2,.38-4,.07-6,.16q-5.5.18-11,.88a30.21,30.21,0,0,0-5.21.34,5.47,5.47,0,0,0-2.31.23.8.8,0,0,1-.88,0H70.9a30.25,30.25,0,0,0-4,.29,5.53,5.53,0,0,0-2.32.23,1.29,1.29,0,0,1-1.15.06,6.35,6.35,0,0,0-2.6.22,22.67,22.67,0,0,0-4.35.35l-2.6,0c2.32-.49,4.64-.94,6.95-1.48a129.4,129.4,0,0,0,23.88-8.31,182,182,0,0,0,27.07-15.29,216.19,216.19,0,0,0,18-13.63q7.67-6.45,14.83-13.43C144.9,146.23,145.2,145.86,145.52,145.5Z"/>
</svg>