<svg xmlns="http://www.w3.org/2000/svg" xmlns:xlink="http://www.w3.org/1999/xlink" viewBox="0 0 234 250" id="scratch">
<path fill="#000" d="M182.63,185.71c8.09-3,14.26,1.94,13.21,10.46a11.93,11.93,0,0,1-.3,1.67A45.1,45.1,0,0,1,183,218.74a18,18,0,0,1-8,4.89c-4.06,1.06-7.56-.33-10.51-3-2.8-2.56-3.07-5.89-2.2-9.4a19.86,19.86,0,0,1,2.59-5.95c.71-1.11.53-1.46-.71-1.85a129.53,129.53,0,0,1-25.34-11.46c-2.89-1.63-2.91-1.69-5.28.76-9.31,9.63-18.72,19.15-28.88,27.9a6.35,6.35,0,0,1-3.57,1.58c-6,.8-12.07,1.58-18.14,2-5.5.35-11,.77-16.51-.3-2.11-.42-4.21-1.12-5-3.39a12.61,12.61,0,0,1-.46-6.7c1.23-6.15,5.72-8.93,11.19-10.52,5.79-1.69,11.74-1.61,17.69-1.3a2.57,2.57,0,0,0,2.17-.46c7.62-7,15.21-14,22.24-21.62.76-.82.73-1.25,0-2a48.52,48.52,0,0,1-6.56-8.29c-.73-1.18-1.16-1-2-.21a70.17,70.17,0,0,0-5.18,5c-3.3,3.45-7.22,6.22-12.14,5.13a41.1,41.1,0,0,1-22.37-12.84c-4.3-4.88-3.43-10.39,1.84-14.23,4-3,7.88-3,12.52,0,2.18,1.41,4.15,3.16,6.51,4.29,2.61,1.24,4.61.91,6.44-1.27,2.16-2.57,4.15-5.27,6.31-8-3.67-.33-7.18-.58-10.67-1-10.21-1.17-20.14-3.46-29.37-8.15-9.58-4.86-17.35-11.55-21.16-22-.41-1.13-1.05-1-1.79-.85a49.67,49.67,0,0,1-7.61.54c-.49,0-1.24.3-1.3-.62s.76-.6,1.2-.61c2.34-.06,4.66-.23,7-.43,1.47-.12,1.79-.56,1.48-1.93a18,18,0,0,1,1-11.42c.62-1.39.29-1.79-1.06-2a29.26,29.26,0,0,1-11-4.56c-.45-.3-1.45-.42-.93-1.3s1.08,0,1.49.26A31.83,31.83,0,0,0,38.39,98a1.47,1.47,0,0,0,1.79-.63c2.85-4.23,6.89-7,11.36-9.29a2.49,2.49,0,0,0,1.56-2.23A48.2,48.2,0,0,1,57.53,71c2.8-6.25,7.54-11,12.66-15.19a15.43,15.43,0,0,0,5.72-10c1.19-7,2.91-14,3.8-21.23L83,27.57c4.43,4.07,8.9,8.1,13.28,12.23,3,2.84,7,3.52,10.59,3.27a77.79,77.79,0,0,1,24.21,1.84,3.61,3.61,0,0,0,3.31-.7c3-2.23,6.14-4.25,9.2-6.39,5.8-4.07,11.57-8.18,17.45-12.34,0,3.6-.52,7.14-.82,10.7-.81,9.6-1.5,19.2-2.35,28.79a5.2,5.2,0,0,0,.93,3.91,60.12,60.12,0,0,1,10.5,23c.3,1.39.52,1.55,1.79.85A79.94,79.94,0,0,1,185.9,86.2c.49-.15,1.18-.94,1.55.12s-.74.81-1.14,1a100.81,100.81,0,0,0-15,6.69,2.23,2.23,0,0,0-1.39,2.65,26.82,26.82,0,0,1,0,6.58c-.26,2.68-.24,2.71,2.47,2.85a66.93,66.93,0,0,0,12.08-.61c.63-.08,1.76-.59,1.9.45s-1,.65-1.61.73a58.1,58.1,0,0,1-13.75.56c-1.19-.12-1.78,0-2.06,1.37a26.56,26.56,0,0,1-2.75,7,54.67,54.67,0,0,1-16.38,18.33c-.43.31-1.16.42-1,1.15s.79.49,1.21.68a23.67,23.67,0,0,1,4.89,2.85c4.7,3.6,9.2,7.46,14.25,10.63a8.64,8.64,0,0,1,4.12,7.06c.14,2.66-.88,5.11-1.62,7.61-.19.66-1,1.47-.19,2.11s1.43-.22,2.1-.55c5.41-2.69,8.84-7.34,12-12.25,2.16-3.37,4.12-6.88,6.39-10.19,1.87-2.74,4.27-5.14,7.93-4.84,4,.34,6.4,3,7.8,6.6a23.23,23.23,0,0,1,.69,14.39c-3.21,12.8-11.87,20.17-24.13,23.83-2.32.69-4.7,1.14-7.51,1.81C178.92,185.88,180.53,186.49,182.63,185.71Zm-15.56-14.24a1.66,1.66,0,0,0-1.17.83,24.37,24.37,0,0,1-5.8,6.79,11.83,11.83,0,0,0,8.08,2.83c7.21-.35,14.23-1.35,20.84-4.38a25,25,0,0,0,8.17-5.59c6.77-6.47,9.52-14.3,8-23.57a11.11,11.11,0,0,0-.78-2.41c-2.12-5.15-6-5.71-9.35-1.35-2.26,2.91-3.87,6.23-5.87,9.31-1.65,2.52-3.38,5-5.07,7.49A31.15,31.15,0,0,1,167.07,171.47Zm-55,15.59c-5.88,6.25-12.37,11.87-18.59,17.77-1,1-2,.79-3.13.68a48.42,48.42,0,0,0-17.09,1,15.44,15.44,0,0,0-5.73,2.68,8.94,8.94,0,0,0-3,9.54,2,2,0,0,0,1.42,1.4,16.76,16.76,0,0,0,4.59.8c10.17.42,20.21-.94,30.26-2.19a4.8,4.8,0,0,0,2.47-1.56c9.8-8.51,18.85-17.79,27.94-27.05,3.71-3.78,7.7-7.28,11.55-10.91.51-.49,1.38-.82.55-1.84-2.25-2.78-1.64-5.67-.14-8.54,1.7-3.23,4.27-5.79,6.79-8.6-3-2.06-5.85-4.08-8.76-6.09a24.56,24.56,0,0,1-6.32-5.92c-1.63-2.31-2.54-4.73-.85-7.81a107.11,107.11,0,0,1-12.34,3.3,70.18,70.18,0,0,1-12.82,1.49c-1.16,0-1.54.82-2.26,1.28a29.89,29.89,0,0,0-8.81,8.79,21.73,21.73,0,0,1-1.56,2c-3.31,3.89-7,4.68-11.54,2.2-2.28-1.26-4.34-2.92-6.56-4.31-3.9-2.44-7-2-10,1.46a4.81,4.81,0,0,0-.74,6,14,14,0,0,0,3.55,4.2,48.74,48.74,0,0,0,15.68,8.72c3.92,1.37,7.25.15,10.13-2.57,3-2.86,5.67-6.16,9.29-8.36.7-.42.49-.86.2-1.41-.48-.94-.93-1.91-1.34-2.88-.24-.58-1-1.25.18-1.72s1,.46,1.26,1c.51.92,1,1.86,1.48,2.79,2.24,5.45,5.85,9.92,9.94,14.06.79.79,1.28.73,2.22,0a24.76,24.76,0,0,0,4.32-4.78c.77-1,1.39-.93,2.1,0C121.91,177.07,116.89,182,112.08,187.06Zm-68.7-88.5c1.54.28,2.55.49,3.56.64.59.08.89.28.74,1s-.36.88-1,.68a5.14,5.14,0,0,0-1-.18c-3.44-.44-3.56-.36-4.53,3.09a18.11,18.11,0,0,0-.2,8c.15,1,.43,1.38,1.49.9s2.4-.84,3.57-1.31c.68-.28,1-.1,1.3.55s-.2.84-.63,1c-.78.32-1.58.6-2.38.88-2.7,1-2.71.94-1.56,3.46a34.19,34.19,0,0,0,11.77,13.66c9.15,6.49,19.58,9.6,30.49,11.34a103.84,103.84,0,0,0,23.69,1.28c20.69-1.1,38.84-7.49,51.65-24.9a31.22,31.22,0,0,0,5-9.78c.21-.75,1.11-1.78-.63-2-.36,0-.42-.5-.38-.88s.32-.77.84-.69c1.17.16,1.29-.69,1.31-1.46,0-2,0-4.1,0-6.2-.76-.16-1.17.55-1.7.92s-.85.2-1.23-.22c-.5-.57-.17-1,.31-1.15,3.46-1.48,2.3-4.15,1.67-6.61a57.22,57.22,0,0,0-9.94-20.28,6.18,6.18,0,0,1-1.28-4.67c1-10.72,1.87-21.44,2.79-32.16,0-.11-.09-.23-.21-.51-3.62,2.52-7.22,5-10.8,7.51-4.87,3.42-9.71,6.88-14.61,10.26-.59.41-1.32,1.82-2.2.45-.78-1.21.84-1.13,1.24-1.74.22-.33.65-.51,1.23-.93A33.32,33.32,0,0,0,125.33,47c-9.64-1.73-19.17-.94-28.66,1.24-.59.14-1.55,1.07-1.92-.26s1-1.15,1.62-1.33c1.74-.45,3.52-.74,5.32-1.39a15,15,0,0,0-3.43-.77c-1.87,0-3.06-1-4.3-2.18-3.72-3.48-7.5-6.89-11.5-10.55-.78,3.78-1.49,7.32-2.22,10.86-.68,3.26-1.42,6.5-2,9.76a3.29,3.29,0,0,1-1.28,2.08c-3.11,2.58-6.08,5.31-9,8.15C60.57,69.91,57.32,79,56.46,89.08c0,.28-.11.56-.16.84A30.19,30.19,0,0,0,43.38,98.56ZM183.87,189a8,8,0,0,1-6.24,0,85.11,85.11,0,0,1-18-8.09c-.67-.4-1.19-.79-2.1-.38-3.76,1.71-7.47,1.22-11-.67a1.69,1.69,0,0,0-2.36.26c-2,1.92-4,3.77-6.11,5.6-.78.69-1.12,1.11.07,1.81,10.61,6.19,21.5,11.73,33.66,14.28.66.14,1.57,0,1.32,1.14s-1.06.67-1.56.48c-1.14-.44-1.66.1-2.2,1a28.91,28.91,0,0,0-3.75,7.57c-.61,2.26-.59,4.45,1.24,6.11,2,1.81,4.36,2.92,7.19,2.19a13.31,13.31,0,0,0,5.48-3.13,42.38,42.38,0,0,0,12.53-19.37,13.19,13.19,0,0,0,.43-1.86c.1-.63.1-1.27.13-1.7C192.71,189.59,188.48,186.94,183.87,189Zm-47.31-48.57a3.61,3.61,0,0,0-1.47,4.8c1,2.77,3.17,4.69,5.44,6.39,3.12,2.34,6.37,4.48,9.54,6.75.7.5,1.21.67,1.74-.16.43-.68,1-1.09,1.68-.33s-.19,1.15-.53,1.54c-2,2.31-4.06,4.55-6.08,6.83-.46.53-.84,1.14-1.25,1.72-4.42,6.32-1.65,10.06,5.18,11.71,3.95,1,7.31-.56,10-3.4,5-5.26,7.51-11.76,8.92-18.72a5.09,5.09,0,0,0-2.53-5.47c-5.39-3.32-10.07-7.58-15.18-11.27a12.92,12.92,0,0,0-7.87-2.79A13.8,13.8,0,0,0,136.56,140.41Z"/>
<path fill="#ff9d00" d="M108.64,143.51c20.69-1.1,38.84-7.49,51.65-24.9a31.22,31.22,0,0,0,5-9.78c.21-.75,1.11-1.78-.63-2-.36,0-.42-.5-.38-.88s.32-.77.84-.69c1.17.16,1.29-.69,1.31-1.46,0-2,0-4.1,0-6.2-.76-.16-1.17.55-1.7.92s-.85.2-1.23-.22c-.5-.57-.17-1,.31-1.15,3.46-1.48,2.3-4.15,1.67-6.61a57.22,57.22,0,0,0-9.94-20.28,6.18,6.18,0,0,1-1.28-4.67c1-10.72,1.87-21.44,2.79-32.16,0-.11-.09-.23-.21-.51-3.62,2.52-7.22,5-10.8,7.51-4.87,3.42-9.71,6.88-14.61,10.26-.59.41-1.32,1.82-2.2.45-.78-1.21.84-1.13,1.24-1.74.22-.33.65-.51,1.23-.93A33.32,33.32,0,0,0,125.33,47c-9.64-1.73-19.17-.94-28.66,1.24-.59.14-1.55,1.07-1.92-.26s1-1.15,1.62-1.33c1.74-.45,3.52-.74,5.32-1.39a15,15,0,0,0-3.43-.77c-1.87,0-3.06-1-4.3-2.18-3.72-3.48-7.5-6.89-11.5-10.55-.78,3.78-1.49,7.32-2.22,10.86-.68,3.26-1.42,6.5-2,9.76a3.29,3.29,0,0,1-1.28,2.08c-3.11,2.58-6.08,5.31-9,8.15C60.57,69.91,57.32,79,56.46,89.08c0,.28-.11.56-.16.84a2.89,2.89,0,0,0,2.29-1.25c.77-1.07,1.67-2,2.51-3.07a26,26,0,0,1,4.6-17.5c3.13-4.7,7-8.55,12.64-10.16S88.75,59,90.25,64.73a15.71,15.71,0,0,1,.39,6.11c-1,7.83-4.9,14.06-10.73,19.2a10,10,0,0,0,1.38,3.07c4.84-1.11,9.8-.68,14.7-1,3.06-.21,3.84.81,3.83,3.86,3.51-.39,6.57-2.06,9.73-3.47-4-12.14,4.38-24.37,12.64-28.12,7.62-3.45,15-.92,17.79,6.29a16.65,16.65,0,0,1,.9,8.56c-1.29,8.54-5.81,14.86-13.23,19.18a37.58,37.58,0,0,1,8.68,2.6c4.52,2.15,7.35,5.44,7.13,10.71a22.08,22.08,0,0,1-2.23,9.18c-3.07,6.08-8,10.27-13.64,13.87C121.68,138.56,115.19,141.11,108.64,143.51Z"/>
<path fill="#fff" d="M80.49,96.07a17.85,17.85,0,0,0,4.11,6.33,4,4,0,0,0,4.47,1c4.08-1.52,7.83-3.56,10.48-7.18.19,0,.48,0,.28-.34v0c3.51-.39,6.57-2.06,9.73-3.47,3.1,6.48,9.08,9.52,18.1,5.91a37.58,37.58,0,0,1,8.68,2.6c4.52,2.15,7.35,5.44,7.13,10.71a22.08,22.08,0,0,1-2.23,9.18c-3.07,6.08-8,10.27-13.64,13.87-5.91,3.8-12.4,6.35-19,8.75A103.84,103.84,0,0,1,85,142.23c-10.91-1.74-21.34-4.85-30.49-11.34a34.19,34.19,0,0,1-11.77-13.66c-1.15-2.52-1.14-2.51,1.56-3.46.8-.28,1.6-.56,2.38-.88.43-.18,1-.26.63-1s-.62-.83-1.3-.55c-1.17.47-2.42.78-3.57,1.31s-1.34.05-1.49-.9a18.11,18.11,0,0,1,.2-8c1-3.45,1.09-3.53,4.53-3.09a5.14,5.14,0,0,1,1,.18c.65.2.88-.1,1-.68s-.15-.87-.74-1c-1-.15-2-.36-3.56-.64A30.19,30.19,0,0,1,56.3,89.92a2.89,2.89,0,0,0,2.29-1.25c.77-1.07,1.67-2,2.51-3.07,2.06,6,4.67,8.27,9.32,8.18a15.27,15.27,0,0,0,7.73-2.58c.6-.37,1.18-.77,1.76-1.16a10,10,0,0,0,1.38,3.07A2.23,2.23,0,0,0,80.49,96.07Zm-9.25,28c5.64,5,11.84,9,19.41,10.27,9.13,1.49,17.11-1.31,23.68-7.65,4.83-4.67,5-10.69,3.63-16.83-1-4.47-1.07-4.48-5.43-3-15.12,5.09-30.32,9.83-46.6,11.59A33.16,33.16,0,0,0,71.24,124.1Z"/>
<path fill="#ff9d00" d="M126.39,171.67c-4.48,5.4-9.5,10.29-14.31,15.39-5.88,6.25-12.37,11.87-18.59,17.77-1,1-2,.79-3.13.68a48.42,48.42,0,0,0-17.09,1,15.44,15.44,0,0,0-5.73,2.68,8.94,8.94,0,0,0-3,9.54,2,2,0,0,0,1.42,1.4,16.76,16.76,0,0,0,4.59.8c10.17.42,20.21-.94,30.26-2.19a4.8,4.8,0,0,0,2.47-1.56c9.8-8.51,18.85-17.79,27.94-27.05,3.71-3.78,7.7-7.28,11.55-10.91.51-.49,1.38-.82.55-1.84-2.25-2.78-1.64-5.67-.14-8.54,1.7-3.23,4.27-5.79,6.79-8.6-3-2.06-5.85-4.08-8.76-6.09a24.56,24.56,0,0,1-6.32-5.92c-1.63-2.31-2.54-4.73-.85-7.81a107.11,107.11,0,0,1-12.34,3.3,70.18,70.18,0,0,1-12.82,1.49c-1.16,0-1.54.82-2.26,1.28a29.89,29.89,0,0,0-8.81,8.79,21.73,21.73,0,0,1-1.56,2c-3.31,3.89-7,4.68-11.54,2.2-2.28-1.26-4.34-2.92-6.56-4.31-3.9-2.44-7-2-10,1.46a4.81,4.81,0,0,0-.74,6,14,14,0,0,0,3.55,4.2,48.74,48.74,0,0,0,15.68,8.72c3.92,1.37,7.25.15,10.13-2.57,3-2.86,5.67-6.16,9.29-8.36.7-.42.49-.86.2-1.41-.48-.94-.93-1.91-1.34-2.88-.24-.58-1-1.25.18-1.72s1,.46,1.26,1c.51.92,1,1.86,1.48,2.79,4.53-9.27,15.5-11.17,22.76-4a5.09,5.09,0,0,1,1.16,6A20,20,0,0,1,126.39,171.67Z"/>
<path fill="#ff9d00" d="M192.61,194.23c.1-4.64-4.13-7.29-8.74-5.25a8,8,0,0,1-6.24,0,85.11,85.11,0,0,1-18-8.09c-.67-.4-1.19-.79-2.1-.38-3.76,1.71-7.47,1.22-11-.67a1.69,1.69,0,0,0-2.36.26c-2,1.92-4,3.77-6.11,5.6-.78.69-1.12,1.11.07,1.81,10.61,6.19,21.5,11.73,33.66,14.28.66.14,1.57,0,1.32,1.14s-1.06.67-1.56.48c-1.14-.44-1.66.1-2.2,1a28.91,28.91,0,0,0-3.75,7.57c-.61,2.26-.59,4.45,1.24,6.11,2,1.81,4.36,2.92,7.19,2.19a13.31,13.31,0,0,0,5.48-3.13,42.38,42.38,0,0,0,12.53-19.37,13.19,13.19,0,0,0,.43-1.86C192.58,195.3,192.58,194.66,192.61,194.23Z"/>
<path fill="#ff9d00" d="M144.13,138a13.8,13.8,0,0,0-7.57,2.4,3.61,3.61,0,0,0-1.47,4.8c1,2.77,3.17,4.69,5.44,6.39,3.12,2.34,6.37,4.48,9.54,6.75.7.5,1.21.67,1.74-.16.43-.68,1-1.09,1.68-.33s-.19,1.15-.53,1.54c-2,2.31-4.06,4.55-6.08,6.83-.46.53-.84,1.14-1.25,1.72-4.42,6.32-1.65,10.06,5.18,11.71,3.95,1,7.31-.56,10-3.4,5-5.26,7.51-11.76,8.92-18.72a5.09,5.09,0,0,0-2.53-5.47c-5.39-3.32-10.07-7.58-15.18-11.27A12.92,12.92,0,0,0,144.13,138Z"/>
<path fill="#ff9d00" d="M184.12,161.42a31.15,31.15,0,0,1-17.05,10.05,1.66,1.66,0,0,0-1.17.83,24.37,24.37,0,0,1-5.8,6.79,11.83,11.83,0,0,0,8.08,2.83c7.21-.35,14.23-1.35,20.84-4.38a25,25,0,0,0,8.17-5.59c0-1.13,0-2.25,0-3.37-.2-4.38-2.55-6.86-7-7.16C188.2,161.28,186.16,161.41,184.12,161.42Z"/>
<path fill="#fff" d="M126.39,171.67a20,20,0,0,0,5.34-7.26,5.09,5.09,0,0,0-1.16-6c-7.26-7.17-18.23-5.27-22.76,4,2.24,5.45,5.85,9.92,9.94,14.06.79.79,1.28.73,2.22,0a24.76,24.76,0,0,0,4.32-4.78C125.06,170.67,125.68,170.76,126.39,171.67Z"/>
<path fill="#fff" d="M184.12,161.42c2,0,4.08-.14,6.1,0,4.41.3,6.76,2.78,7,7.16,0,1.12,0,2.24,0,3.37,6.77-6.47,9.52-14.3,8-23.57a11.11,11.11,0,0,0-.78-2.41c-2.12-5.15-6-5.71-9.35-1.35-2.26,2.91-3.87,6.23-5.87,9.31C187.54,156.45,185.81,158.92,184.12,161.42Z"/>
<path fill="#000" d="M122.19,64.37c7.62-3.45,15-.92,17.79,6.29a16.65,16.65,0,0,1,.9,8.56c-1.29,8.54-5.81,14.86-13.23,19.18-9,3.61-15,.57-18.1-5.91C105.51,80.35,113.93,68.12,122.19,64.37Zm8.62.29a12.05,12.05,0,0,0-6.67.72c-9,3.28-15.42,14.55-13.69,24,1.25,6.77,7.19,10.39,13.81,8.42,8.4-2.49,15.1-11.84,15.1-21C139.36,70.28,136.17,65.79,130.81,64.66Z"/>
<path fill="#000" d="M65.7,68.1c3.13-4.7,7-8.55,12.64-10.16S88.75,59,90.25,64.73a15.71,15.71,0,0,1,.39,6.11c-1,7.83-4.9,14.06-10.73,19.2-.58.39-1.16.79-1.76,1.16a15.27,15.27,0,0,1-7.73,2.58c-4.65.09-7.26-2.22-9.32-8.18A26,26,0,0,1,65.7,68.1ZM63.2,86.61c1.35,4.27,4.89,6.3,9.25,5.25a18.07,18.07,0,0,0,8.75-5.35A27.65,27.65,0,0,0,89,70.84,14.62,14.62,0,0,0,88.61,65c-1.26-4.69-5.3-6.92-10.06-5.34-6.94,2.31-11,7.62-13.94,14a20,20,0,0,0-2,8.62A14.92,14.92,0,0,0,63.2,86.61Z"/>
<path fill="#000" d="M81.29,93.11a2.23,2.23,0,0,0-.8,3,17.85,17.85,0,0,0,4.11,6.33,4,4,0,0,0,4.47,1c4.08-1.52,7.83-3.56,10.48-7.18l.28-.34v0c0-3-.77-4.07-3.83-3.86C91.09,92.43,86.13,92,81.29,93.11Z"/>
<path fill="#000" d="M112.53,106.88c4.36-1.47,4.44-1.46,5.43,3,1.36,6.14,1.2,12.16-3.63,16.83-6.57,6.34-14.55,9.14-23.68,7.65-7.57-1.23-13.77-5.29-19.41-10.27a33.16,33.16,0,0,1-5.31-5.63C82.21,116.71,97.41,112,112.53,106.88Zm-24.44,25.2c9.1,2.68,17.11.16,24.16-5.65,4.79-4,6.28-12.6,3.62-18-.52-1-1.12-.5-1.74-.31C108.07,110,102,111.93,96,113.91c-7.82,2.56-15.89,4-24,5.41-.8.14-1.6.32-2.77.56C74.82,125.44,80.72,129.91,88.09,132.08Z"/>
<path fill="#ff9d00" d="M99.83,95.92l-.28.34C99.74,96.22,100,96.28,99.83,95.92Z"/>
<path fill="#fff" d="M124.26,97.76c-6.62,2-12.56-1.65-13.81-8.42-1.73-9.41,4.69-20.68,13.69-24a12.05,12.05,0,0,1,6.67-.72c5.36,1.13,8.55,5.62,8.55,12.06C139.36,85.92,132.66,95.27,124.26,97.76ZM124,86.84a2.83,2.83,0,0,0-2.59-3,2.8,2.8,0,0,0-2.91,2.9,2.91,2.91,0,0,0,2.71,2.94A2.82,2.82,0,0,0,124,86.84Z"/>
<path fill="#fff" d="M64.61,73.59c2.91-6.36,7-11.67,13.94-14,4.76-1.58,8.8.65,10.06,5.34A14.62,14.62,0,0,1,89,70.84,27.65,27.65,0,0,1,81.2,86.51a18.07,18.07,0,0,1-8.75,5.35c-4.36,1-7.9-1-9.25-5.25a14.92,14.92,0,0,1-.54-4.4A20,20,0,0,1,64.61,73.59Zm7,11.44a2.63,2.63,0,0,0,2.78-2.79,2.79,2.79,0,0,0-2.63-3A2.9,2.9,0,0,0,71.56,85Z"/>
<path fill="#fff" d="M69.23,119.88c5.59,5.56,11.49,10,18.86,12.2,9.1,2.68,17.11.16,24.16-5.65,4.79-4,6.28-12.6,3.62-18-.52-1-1.12-.5-1.74-.31C108.07,110,102,111.93,96,113.91c-7.82,2.56-15.89,4-24,5.41C71.2,119.46,70.4,119.64,69.23,119.88Z"/>
<path fill="#000" d="M121.24,89.67a2.93,2.93,0,0,0,.2-5.84,2.8,2.8,0,0,0-2.91,2.9A2.91,2.91,0,0,0,121.24,89.67Z"/>
<path fill="#000" d="M68.92,82.07a2.74,2.74,0,0,0,2.64,3,2.63,2.63,0,0,0,2.78-2.79,2.79,2.79,0,0,0-2.63-3A2.74,2.74,0,0,0,68.92,82.07Z"/>
</svg>