<svg xmlns="http://www.w3.org/2000/svg" viewBox="0 0 605.89 454.02" id="scss">
<path fill="#d9609b" d="M592.91,291.44c-19.71-23.92-46.34-31.1-76-30.22a120.91,120.91,0,0,0-47.36,11.15c-1.65.76-3.28,1.18-4.27-.85-4.52-9.25-9.74-18.13-11.54-28.58-2.5-14.46-.11-28.14,4.75-41.68,2.58-7.19.35-10.71-7.34-11.42a65.72,65.72,0,0,0-20.87,1.22c-4.84,1.11-7.75,3.75-9.13,8.71-2.15,7.68-3.41,15.61-6.76,23-4.41,9.71-9.34,19.16-14.51,28.48-5.49,9.89-11.28,19.62-17,29.4-1,1.68-2.11,3.66-3.68.47-3.24-6.57-6.17-13.16-7.43-20.57-2.39-14.11,0-27.46,4.72-40.69,2.8-7.75.6-11.17-7.73-12a60.79,60.79,0,0,0-20.84,1.5c-4.48,1.1-7.23,3.49-8.2,8.23a96.56,96.56,0,0,1-6.22,20q-17.18,38.57-34.32,77.15c-5.36,12-11.06,23.88-17.3,35.48-.67,1.23-1.26,3.14-3.14,2.57-1.55-.47-1.06-2.26-1.13-3.52a63.92,63.92,0,0,1,1.6-16.36c3.79-18.45,9.13-36.51,13.73-54.75,1.66-6.58-1.41-11.09-8-12.37-2.31-.45-4.77-.79-6.89.26-4.25,2.11-4.35-.18-4.16-3.4.29-5,.67-10-.12-15-2-12.7-10.88-19.44-23.44-17.12-16.49,3.06-28.81,13.22-40.16,24.74-3.73,3.78-6.4,9.11-10.77,11.66-18.26,10.66-37,20.52-55.53,30.71-2.19,1.2-4,1.13-5.79-.78C125.48,283.71,110.67,273.15,96.4,262c-14.54-11.42-29.18-22.76-39.94-38.16-8.09-11.6-12.14-24.28-10.81-38.55,2-21.69,13-38.83,27.37-54.23,20.17-21.55,44.58-37.37,70.09-51.68,39.16-22,80.07-38.76,125.47-42,20.31-1.47,40.35-.33,59.19,8.47,11.57,5.41,19.53,13.85,20.86,27.17a53.78,53.78,0,0,1-2.3,22.2c-7,21.55-21,38.07-38,52.17-27.19,22.47-58.74,35.2-93.47,39.89-25.3,3.42-49.76,2.09-69.16-17.95-1.07-1.09-2.41-2-4-1.19s-2,2.6-1.76,4.31a25.39,25.39,0,0,0,6.62,13.22c10.27,11.5,23.26,18.25,38.25,21.06,18,3.37,36.17,2.84,54.2,0,38.83-6.14,74.42-19.4,102.76-48,21.31-21.5,36.74-46.16,39.59-77.06,2.24-24.32-5.55-44.62-25.73-59.35C343.39,13.34,329.64,8,315,4.64,277.42-4,240.42.05,204.11,11.29A444,444,0,0,0,94.5,62.71c-29.64,19.11-56.15,41.66-76,71.26a153.32,153.32,0,0,0-13,24.74c-11.25,25.94-4.32,48.74,11.94,70C33.06,249.12,53.33,264.27,74,279c12.87,9.2,26.23,17.72,38.74,27.42,6.32,4.9,6.36,5.29-1,8.83-8.27,4-16.21,8.51-24,13.25-19,11.53-37.41,23.87-52,41C22.76,384.63,17.44,402.19,20.4,422c2.28,15.25,12.37,27.18,24.92,30a80.23,80.23,0,0,0,29.32,1.27c62-9.23,98.41-71.37,80.63-130.1-2.57-8.5-2.82-8.49,4.8-13,8.11-4.76,16.3-9.39,25.15-14.48a19.18,19.18,0,0,1-.24,3,163.17,163.17,0,0,0-6.56,35.8c-1.39,19.55,2.83,37.88,13.7,54.19,9.26,13.92,26.6,13.61,36.35,0,4.3-6,7.49-12.6,10.65-19.2,3.69-7.73,7.16-15.57,10.92-23.8,1.2,2.25.4,3.85.28,5.43-.7,10-.83,20,3.11,29.54,4.08,9.85,13.22,12.56,22,6.62A47.94,47.94,0,0,0,290,371c12.64-22.13,24.67-44.6,35.14-67.86,6.28-14,12.25-28,18.67-42.79a8.49,8.49,0,0,1,1.07,1.83,151.54,151.54,0,0,0,16.56,45.86c1.29,2.28.59,4-.77,5.93-4.72,6.66-9.78,13.05-15,19.32-7.9,9.46-15.79,18.93-23.44,28.59-3.13,4-5.79,8.56-3.19,13.81s7.59,5.89,12.82,6c18.08.24,34-5.92,48.19-16.66a40.37,40.37,0,0,0,16.16-28.25c1.33-10.61-1.11-20.51-4.91-30.22-1-2.42-1.64-4.47.12-7,11.92-16.92,22.08-34.89,31.62-53.23.58-1.11.79-2.92,2.5-2.65s1.58,2.05,1.83,3.27a144.81,144.81,0,0,0,13.51,38.54c1.28,2.43,1,4.21-1.17,6.11a126.75,126.75,0,0,0-10.36,10.11C418.27,314,409,327.32,407.44,344.5c-1.13,12.5,7.66,20.24,19.75,17,11.66-3.15,22.56-8.09,32-15.82,18.42-15.05,23-29,15.94-51.1-1.57-4.94-.37-6.73,4.29-8.21,21.89-7,44-7,66.14-2.05,14.43,3.21,27.53,9.3,37.22,21,7.73,9.29,12.53,19.73,9.74,32.22-2.14,9.53-8.45,16-16.4,21.15-1.84,1.2-4.87,2.24-3.29,5.16,1.45,2.68,4.17,1.29,6.3.53a40.65,40.65,0,0,0,26.73-38.48C605.72,312.8,601.05,301.33,592.91,291.44ZM133.82,350.05c0,32.29-23.84,64.07-53.91,72.12a36.66,36.66,0,0,1-11.36,1.39c-8.69-.43-13.52-5.21-13.72-13.89-.37-15.68,6.65-28.37,17-39.28,14.81-15.59,32.74-27.18,51-38.18,8.76-5.26,8.23-6.66,10.21,4.91a37.92,37.92,0,0,1,.71,4.94C133.91,344.72,133.82,347.38,133.82,350.05Zm121.83-86.51c-1.94,11.87-5.8,23.25-9.91,34.49-6.75,18.43-13.3,37-22,54.59A31.31,31.31,0,0,1,218.3,361c-3.57,3.65-6.28,3.25-8.31-1.5-2.88-6.72-3.28-13.87-3.18-21.08C207,312.06,216.24,289,232,268.26a35.83,35.83,0,0,1,14.64-11.78C253.73,253.51,256.89,255.92,255.65,263.54ZM362.2,350.37c-4.93,6.62-11.41,11.58-18.63,15.56-1,.56-2.29,1.19-3.24.2s.12-1.85.74-2.54c9.08-10.1,18.18-20.18,26.94-30.73C369.2,339.88,366,345.32,362.2,350.37Zm67.25-4.93c-3.71,1.41-4.86-.24-4-3.42,3.62-13.79,10.34-25.81,20.92-35.53,2-1.87,3.18-1.21,3.7,1.28.16.81.4,1.62.48,2.44.15,1.48.21,3,.24,3.49C450.73,328.59,442.41,340.52,429.45,345.44Z"/>
</svg>