<svg xmlns="http://www.w3.org/2000/svg" viewBox="0 0 145.25 200" id="sql">
<path fill="#157fcb" d="M143.69,43.34c-3.44-3.89-6.82-7.82-10.24-11.73C125.24,22.24,117,12.9,108.85,3.48,107.51,1.93,106.19.26,103.92,0H6.44C5.07.51,3.54.42,2.3,1.47.14,3.3,0,5.73,0,8.22q0,91.5,0,183c0,.84.09,1.68.16,2.52.46,5.12,3.28,5.92,6.69,6.23.45,0,.91,0,1.37,0H137.28c.46,0,.91,0,1.36,0,3.9-.22,5.65-1.73,6.38-5.5a2.13,2.13,0,0,1,.23-.93V47.22C144.79,45.91,144.71,44.49,143.69,43.34Z"/>
<path fill="#fff" d="M72.74,133.06c-20.79,0-41.58,0-62.37.05-1.94,0-2.31-.54-2.31-2.37Q8.15,70.36,8.06,10c0-1.78.46-2.24,2.24-2.24q43.17.09,86.35,0c1.76,0,2.24.43,2.23,2.22-.08,12.29,0,24.58,0,36.87,0,3.61,1.33,5,4.93,5,10.52,0,21,0,31.57,0,1.63,0,2,.45,2,2.06q-.07,38.63,0,77.24c0,1.68-.51,2-2.08,2Q104,133,72.74,133.06Z"/>
<path fill="#fff" d="M84.9,182.74a72.33,72.33,0,0,0,10,2.38c1.21.21,1.48.61,1,1.76a51.5,51.5,0,0,0-2,5.48c-.37,1.25-.92,1.41-2.09,1-4.94-1.59-9.85-3.25-14.64-5.26a27.35,27.35,0,0,0-7.3-1.89c-10.3-1.31-17.6-8.73-19-19.05C50,160.44,50.72,154,54.27,148c4.91-8.23,14.21-12.1,24.42-10.2,8.78,1.64,15.51,8.84,17,18.34,1.24,7.81.18,15.14-4.78,21.6C89.37,179.78,87.21,181.09,84.9,182.74Z"/>
<path fill="#fff" d="M24.74,186.25a34.09,34.09,0,0,1-10.22-2c-1.28-.47-1.73-1.07-1.29-2.45a38.45,38.45,0,0,0,1.32-5.28c.25-1.47.6-2,2.19-1.23a24.44,24.44,0,0,0,10.76,2.28,9.44,9.44,0,0,0,4.65-1.22A4.49,4.49,0,0,0,33,169a12.24,12.24,0,0,0-4-2.4,73.76,73.76,0,0,1-8-3.49c-5-2.76-7.91-6.77-7.49-12.6S17.33,141,22.44,139c6.69-2.63,13.48-2.12,20.17.32.64.23,1,.51.75,1.27-.66,2.24-1.29,4.49-1.87,6.75-.25,1-.75.8-1.42.53a22.24,22.24,0,0,0-8.13-1.71,11.91,11.91,0,0,0-4.6.63,4.24,4.24,0,0,0-2.93,3.36,4.07,4.07,0,0,0,1.87,4,24.65,24.65,0,0,0,5.58,2.72c2.86,1.22,5.8,2.26,8.3,4.2A13.4,13.4,0,0,1,37.67,184C34.08,185.69,30.28,186.31,24.74,186.25Z"/>
<path fill="#fff" d="M103.23,161.74c0-7.27,0-14.55,0-21.82,0-1.5.43-1.89,1.86-1.82a69.17,69.17,0,0,0,7.2,0c1.47-.08,1.84.37,1.83,1.83-.07,11.43,0,22.86-.1,34.29,0,2.07.61,2.45,2.49,2.4,4.93-.13,9.87,0,14.8-.07,1.28,0,1.69.41,1.64,1.67-.09,2-.07,4,0,6,0,1.11-.37,1.44-1.46,1.44q-13.35-.06-26.68,0c-1.41,0-1.56-.6-1.56-1.75C103.25,176.55,103.23,169.15,103.23,161.74Z"/>
<path fill="#157fcb" d="M68.61,50.92A56.85,56.85,0,0,1,86.9,53.77a17,17,0,0,1,5,2.62c1.62,1.29,2.1,2.94,2.44,5A71.23,71.23,0,0,1,95,72.22a8.11,8.11,0,0,1-.63,3.61,1.71,1.71,0,0,0-.19,1.28,26,26,0,0,1,0,13.78,1.28,1.28,0,0,0,0,.75c1.45,3.52.59,7.2.72,10.8.1,2.78-1.58,4.75-3.67,6.33C87,112,82,113.41,76.81,114.14c-9.32,1.31-18.51,1-27.39-2.56A21.21,21.21,0,0,1,44.83,109c-2.68-2-4.31-4.45-4-7.93.26-3.21-.18-6.4.62-9.67.41-1.65-.77-3.82-.62-5.85.22-2.88-.58-5.86.83-8.64a.77.77,0,0,0,0-.54c-1.59-3.49-.67-7.18-.8-10.78-.07-2.09.66-4.16.9-6.27.2-1.88,1.92-3,3.52-3.94,4-2.32,8.46-3.2,13-3.87A70.26,70.26,0,0,1,68.61,50.92Z"/>
<path fill="#157fcb" d="M84.85,163.32a20.05,20.05,0,0,1-2.43,9,10.12,10.12,0,0,1-17.64.72c-4.31-6.5-3.79-18.13,1.07-23.69a9.89,9.89,0,0,1,16,1.12C83.81,153.48,84.81,157.31,84.85,163.32Z"/>
<path fill="#fff" d="M44,95.53c7.21,5.1,15.44,6.26,23.87,6.26S84.49,100.64,92,95.4a40.85,40.85,0,0,1-.13,7.94c-.32,1.77-1.77,2.82-3.2,3.75-3.95,2.58-8.41,3.68-13,4.3a51.49,51.49,0,0,1-23.07-1.73,18,18,0,0,1-2-.75C43,105.4,43.27,103.8,44,95.53Z"/>
<path fill="#fff" d="M43.68,80.78c7.45,5.35,15.72,6.49,24.13,6.49S84.51,86.19,91.7,81c.76,8.15,1.21,9.92-6.49,13.32-6.48,2.86-13.44,3.29-20.43,3a40.78,40.78,0,0,1-14.93-3.23,18.64,18.64,0,0,1-3.68-2.17,5.87,5.87,0,0,1-2.51-5.2C43.74,84.85,43.68,83,43.68,80.78Z"/>
<path fill="#fff" d="M43.68,67c14.25,7.07,32.24,7.09,48.08.22.69,7.26,1,9-6.28,12.24-6.64,3-13.78,3.49-21,3.08a39.52,39.52,0,0,1-14.72-3.28,25.48,25.48,0,0,1-3.36-1.94,5.81,5.81,0,0,1-2.77-5.44C43.75,70.35,43.68,68.8,43.68,67Z"/>
</svg>